<?xml version="1.0" encoding="UTF-8" standalone="no"?>
<!-- Created with Inkscape (http://www.inkscape.org/) -->

<svg
   width="383.12549mm"
   height="438.68073mm"
   viewBox="0 0 383.12548 438.68073"
   version="1.1"
   id="svg4251"
   xml:space="preserve"
   inkscape:version="1.2.2 (b0a8486541, 2022-12-01)"
   sodipodi:docname="clans.svg"
   inkscape:export-filename="clans.png"
   inkscape:export-xdpi="72"
   inkscape:export-ydpi="72"
   xmlns:inkscape="http://www.inkscape.org/namespaces/inkscape"
   xmlns:sodipodi="http://sodipodi.sourceforge.net/DTD/sodipodi-0.dtd"
   xmlns:xlink="http://www.w3.org/1999/xlink"
   xmlns="http://www.w3.org/2000/svg"
   xmlns:svg="http://www.w3.org/2000/svg"><sodipodi:namedview
     id="namedview4253"
     pagecolor="#ffffff"
     bordercolor="#666666"
     borderopacity="1.0"
     inkscape:showpageshadow="2"
     inkscape:pageopacity="0.0"
     inkscape:pagecheckerboard="0"
     inkscape:deskcolor="#d1d1d1"
     inkscape:document-units="mm"
     showgrid="false"
     inkscape:zoom="0.84096521"
     inkscape:cx="903.12892"
     inkscape:cy="853.78086"
     inkscape:window-width="3840"
     inkscape:window-height="2136"
     inkscape:window-x="0"
     inkscape:window-y="0"
     inkscape:window-maximized="1"
     inkscape:current-layer="layer1" /><defs
     id="defs4248"><rect
       x="606.68976"
       y="-275.78613"
       width="852.19379"
       height="172.24023"
       id="rect442" /><marker
       style="overflow:visible"
       id="TriangleStart"
       refX="0"
       refY="0"
       orient="auto-start-reverse"
       inkscape:stockid="TriangleStart"
       markerWidth="5.3244081"
       markerHeight="6.155385"
       viewBox="0 0 5.3244081 6.1553851"
       inkscape:isstock="true"
       inkscape:collect="always"
       preserveAspectRatio="xMidYMid"><path
         transform="scale(0.5)"
         style="fill:context-stroke;fill-rule:evenodd;stroke:context-stroke;stroke-width:1pt"
         d="M 5.77,0 -2.88,5 V -5 Z"
         id="path135" /></marker><marker
       style="overflow:visible"
       id="TriangleStart-3"
       refX="0"
       refY="0"
       orient="auto-start-reverse"
       inkscape:stockid="TriangleStart"
       markerWidth="5.3244081"
       markerHeight="6.155385"
       viewBox="0 0 5.3244081 6.1553851"
       inkscape:isstock="true"
       inkscape:collect="always"
       preserveAspectRatio="xMidYMid"><path
         transform="scale(0.5)"
         style="fill:context-stroke;fill-rule:evenodd;stroke:context-stroke;stroke-width:1pt"
         d="M 5.77,0 -2.88,5 V -5 Z"
         id="path135-1" /></marker><marker
       style="overflow:visible"
       id="TriangleStart-9"
       refX="0"
       refY="0"
       orient="auto-start-reverse"
       inkscape:stockid="TriangleStart"
       markerWidth="5.3244081"
       markerHeight="6.155385"
       viewBox="0 0 5.3244081 6.1553851"
       inkscape:isstock="true"
       inkscape:collect="always"
       preserveAspectRatio="xMidYMid"><path
         transform="scale(0.5)"
         style="fill:context-stroke;fill-rule:evenodd;stroke:context-stroke;stroke-width:1pt"
         d="M 5.77,0 -2.88,5 V -5 Z"
         id="path135-4" /></marker><marker
       style="overflow:visible"
       id="TriangleStart-8"
       refX="0"
       refY="0"
       orient="auto-start-reverse"
       inkscape:stockid="TriangleStart"
       markerWidth="5.3244081"
       markerHeight="6.155385"
       viewBox="0 0 5.3244081 6.1553851"
       inkscape:isstock="true"
       inkscape:collect="always"
       preserveAspectRatio="xMidYMid"><path
         transform="scale(0.5)"
         style="fill:context-stroke;fill-rule:evenodd;stroke:context-stroke;stroke-width:1pt"
         d="M 5.77,0 -2.88,5 V -5 Z"
         id="path135-45" /></marker><marker
       style="overflow:visible"
       id="TriangleStart-4"
       refX="0"
       refY="0"
       orient="auto-start-reverse"
       inkscape:stockid="TriangleStart"
       markerWidth="5.3244081"
       markerHeight="6.155385"
       viewBox="0 0 5.3244081 6.1553851"
       inkscape:isstock="true"
       inkscape:collect="always"
       preserveAspectRatio="xMidYMid"><path
         transform="scale(0.5)"
         style="fill:context-stroke;fill-rule:evenodd;stroke:context-stroke;stroke-width:1pt"
         d="M 5.77,0 -2.88,5 V -5 Z"
         id="path135-7" /></marker><marker
       style="overflow:visible"
       id="TriangleStart-0"
       refX="0"
       refY="0"
       orient="auto-start-reverse"
       inkscape:stockid="TriangleStart"
       markerWidth="5.3244081"
       markerHeight="6.155385"
       viewBox="0 0 5.3244081 6.1553851"
       inkscape:isstock="true"
       inkscape:collect="always"
       preserveAspectRatio="xMidYMid"><path
         transform="scale(0.5)"
         style="fill:context-stroke;fill-rule:evenodd;stroke:context-stroke;stroke-width:1pt"
         d="M 5.77,0 -2.88,5 V -5 Z"
         id="path135-62" /></marker><marker
       style="overflow:visible"
       id="TriangleStart-02"
       refX="0"
       refY="0"
       orient="auto-start-reverse"
       inkscape:stockid="TriangleStart"
       markerWidth="5.3244081"
       markerHeight="6.155385"
       viewBox="0 0 5.3244081 6.1553851"
       inkscape:isstock="true"
       inkscape:collect="always"
       preserveAspectRatio="xMidYMid"><path
         transform="scale(0.5)"
         style="fill:context-stroke;fill-rule:evenodd;stroke:context-stroke;stroke-width:1pt"
         d="M 5.77,0 -2.88,5 V -5 Z"
         id="path135-3" /></marker><marker
       style="overflow:visible"
       id="TriangleStart-9-9"
       refX="0"
       refY="0"
       orient="auto-start-reverse"
       inkscape:stockid="TriangleStart"
       markerWidth="5.3244081"
       markerHeight="6.155385"
       viewBox="0 0 5.3244081 6.1553851"
       inkscape:isstock="true"
       inkscape:collect="always"
       preserveAspectRatio="xMidYMid"><path
         transform="scale(0.5)"
         style="fill:context-stroke;fill-rule:evenodd;stroke:context-stroke;stroke-width:1pt"
         d="M 5.77,0 -2.88,5 V -5 Z"
         id="path135-4-2" /></marker><marker
       style="overflow:visible"
       id="TriangleStart-8-8"
       refX="0"
       refY="0"
       orient="auto-start-reverse"
       inkscape:stockid="TriangleStart"
       markerWidth="5.3244081"
       markerHeight="6.155385"
       viewBox="0 0 5.3244081 6.1553851"
       inkscape:isstock="true"
       inkscape:collect="always"
       preserveAspectRatio="xMidYMid"><path
         transform="scale(0.5)"
         style="fill:context-stroke;fill-rule:evenodd;stroke:context-stroke;stroke-width:1pt"
         d="M 5.77,0 -2.88,5 V -5 Z"
         id="path135-45-9" /></marker></defs><g
     inkscape:groupmode="layer"
     id="layer11"
     inkscape:label="bg"
     transform="translate(-51.641832,43.423982)"><rect
       style="color:#000000;font-variation-settings:normal;overflow:visible;opacity:1;vector-effect:none;fill:#f9f9f9;fill-opacity:1;stroke:none;stroke-width:1;stroke-linecap:butt;stroke-linejoin:miter;stroke-miterlimit:4;stroke-dasharray:12, 12;stroke-dashoffset:0;stroke-opacity:1;-inkscape-stroke:none;marker-end:url(#TriangleStart);stop-color:#000000;stop-opacity:1"
       id="rect6997"
       width="680.74762"
       height="525.85242"
       x="-163.98663"
       y="-85.21035" /><text
       xml:space="preserve"
       transform="matrix(0.26458333,0,0,0.26458333,51.641832,-43.649766)"
       id="text440"
       style="font-size:10.6667px;line-height:125%;font-family:'Linux Libertine O';-inkscape-font-specification:'Linux Libertine O';font-variant-ligatures:none;letter-spacing:0px;word-spacing:0px;writing-mode:lr-tb;white-space:pre;shape-inside:url(#rect442);display:inline;fill:none;stroke:#000000;stroke-width:1px;stroke-linecap:butt;stroke-linejoin:miter;stroke-opacity:1" /></g><g
     inkscape:label="osm"
     inkscape:groupmode="layer"
     id="layer1"
     transform="translate(231.09642,823.75821)"
     style="display:inline;opacity:0.68"><image
       width="648.75836"
       height="508"
       preserveAspectRatio="none"
       style="image-rendering:optimizeQuality"
       xlink:href="osmbase3.png"
       id="image4859"
       x="-435.11526"
       y="-857.45068" /></g><g
     inkscape:groupmode="layer"
     id="layer4"
     inkscape:label="orig"
     transform="translate(231.09642,823.75821)"
     style="display:none"><g
       id="g4668"
       transform="matrix(2.4414337,0,0,2.3351717,-574.11683,1034.4338)"><g
         id="g4805"
         transform="matrix(1.3454431,0,0,1.4041016,-336.39017,255.27179)"
         style="opacity:1"><image
           width="199.98268"
           height="187.53667"
           preserveAspectRatio="none"
           style="opacity:0.66;image-rendering:optimizeQuality"
           xlink:href="clan-movements.png"
           id="image4512"
           x="344.30621"
           y="-779.19543" /></g></g></g><g
     inkscape:groupmode="layer"
     id="layer5"
     inkscape:label="paths"
     transform="translate(231.09642,823.75821)" /><g
     inkscape:groupmode="layer"
     id="layer10"
     inkscape:label="dashed"
     style="display:inline"
     transform="translate(-51.641832,43.423982)"><path
       style="fill:none;fill-rule:evenodd;stroke:#0055d4;stroke-width:1;stroke-linecap:butt;stroke-linejoin:miter;stroke-dasharray:3,3;stroke-dashoffset:0;stroke-opacity:1;marker-end:url(#TriangleStart)"
       d="M 268.10872,343.41074 358.15748,183.13052"
       id="path5289"
       sodipodi:nodetypes="cc" /><path
       style="fill:none;fill-rule:evenodd;stroke:#0055d4;stroke-width:1;stroke-linecap:butt;stroke-linejoin:miter;stroke-dasharray:3,3;stroke-dashoffset:0;stroke-opacity:1;marker-end:url(#TriangleStart)"
       d="M 187.80726,286.00367 164.19047,208.81562"
       id="path5291"
       sodipodi:nodetypes="cc" /><path
       style="fill:none;fill-rule:evenodd;stroke:#0055d4;stroke-width:1;stroke-linecap:butt;stroke-linejoin:miter;stroke-dasharray:3,3;stroke-dashoffset:0;stroke-opacity:1;marker-end:url(#TriangleStart)"
       d="M 52.166405,228.64954 156.86489,202.87347"
       id="path5293" /><path
       style="fill:none;fill-rule:evenodd;stroke:#0055d4;stroke-width:1;stroke-linecap:butt;stroke-linejoin:miter;stroke-dasharray:3,3;stroke-dashoffset:0;stroke-opacity:1;marker-end:url(#TriangleStart)"
       d="M 52.166405,228.64954 76.840303,188.9624"
       id="path5295" /><path
       style="fill:none;fill-rule:evenodd;stroke:#0055d4;stroke-width:1;stroke-linecap:butt;stroke-linejoin:miter;stroke-dasharray:3,3;stroke-dashoffset:0;stroke-opacity:1;marker-end:url(#TriangleStart)"
       d="m 103.28198,238.95282 c 0,-1.04429 -9.633894,-34.41846 -9.633894,-34.41846"
       id="path5297"
       sodipodi:nodetypes="cc" /><path
       style="fill:none;fill-rule:evenodd;stroke:#0055d4;stroke-width:1;stroke-linecap:butt;stroke-linejoin:miter;stroke-dasharray:3,3;stroke-dashoffset:0;stroke-opacity:1;marker-end:url(#TriangleStart)"
       d="M 187.80726,286.00367 81.33632,241.95939"
       id="path5299" /><path
       style="fill:none;fill-rule:evenodd;stroke:#0055d4;stroke-width:1;stroke-linecap:butt;stroke-linejoin:miter;stroke-dasharray:3,3;stroke-dashoffset:0;stroke-opacity:1;marker-end:url(#TriangleStart)"
       d="m 52.166405,228.64954 14.759236,9.2383 168.687539,105.58714"
       id="path5301"
       sodipodi:nodetypes="ccc" /><path
       style="fill:none;fill-rule:evenodd;stroke:#0055d4;stroke-width:1;stroke-linecap:butt;stroke-linejoin:miter;stroke-dasharray:3,3;stroke-dashoffset:0;stroke-opacity:1;marker-end:url(#TriangleStart)"
       d="M 235.61318,343.47498 67.021923,210.51947"
       id="path5303"
       sodipodi:nodetypes="cc" /><path
       style="font-variation-settings:normal;vector-effect:none;fill:none;fill-opacity:1;fill-rule:evenodd;stroke:#0055d4;stroke-width:1;stroke-linecap:butt;stroke-linejoin:miter;stroke-miterlimit:4;stroke-dasharray:3,3;stroke-dashoffset:0;stroke-opacity:1;-inkscape-stroke:none;marker-end:url(#TriangleStart-3);stop-color:#000000"
       d="m 205.19872,424.99555 44.19662,-35.26819"
       id="path5285"
       transform="translate(51.64183,-43.423984)" /></g><g
     inkscape:groupmode="layer"
     id="layer7"
     inkscape:label="green"
     style="display:inline"
     transform="translate(-51.641832,43.423982)"><path
       style="font-variation-settings:normal;opacity:1;vector-effect:none;fill:none;fill-opacity:1;fill-rule:evenodd;stroke:#338000;stroke-width:1.14289;stroke-linecap:butt;stroke-linejoin:miter;stroke-miterlimit:4;stroke-dasharray:none;stroke-dashoffset:0;stroke-opacity:1;-inkscape-stroke:none;stop-color:#000000;stop-opacity:1"
       d="m 375.97775,159.64054 c -1.51017,0.93279 -5.19136,3.5612 -12.42016,4.18339 -6.56261,0.56486 -14.36726,1.574 -19.87594,2.23879 -9.75096,1.17675 -19.39999,3.09527 -29.05855,4.87802 -13.58659,2.50778 -27.18438,5.0155 -40.63251,8.18285 -5.6261,1.32508 -11.01007,3.76249 -16.73987,4.52292 -1.80834,0.23999 -3.9864,1.05779 -5.4726,0 -2.78341,-1.98106 -2.27931,-6.44192 -3.35683,-9.68397 -1.70033,-5.11597 -2.92906,-10.39562 -4.90404,-15.41196 -1.52714,-3.87884 -1.82805,-9.07396 -5.35026,-11.30366 -2.37378,-1.5027 -5.62333,0.15805 -8.42832,0 -5.27261,-0.2971 -10.64454,-0.40206 -15.74264,-1.77975 -1.93013,-0.52159 -4.09586,-0.98513 -5.48826,-2.41995 -3.55625,-3.66459 -1.63462,-11.18323 -5.75734,-14.19641 -2.30472,-1.68445 -6.02189,0.69015 -8.53876,-0.65687 -1.46722,-0.78526 -1.64026,-3.09423 -3.07967,-3.92938 -2.16461,-1.25591 -5.14826,-0.0567 -7.42846,-1.08801 -3.11741,-1.40995 -5.25152,-4.38809 -7.82357,-6.64436 -2.80236,-2.4583 -4.86463,-6.03288 -8.28789,-7.5086 -2.62436,-1.13133 -5.6918,-0.55608 -8.54746,-0.6674 -3.4631,-0.135 -7.08654,-1.02513 -10.39719,0 -3.99358,1.2366 -6.32581,5.94504 -10.34731,7.08761 -5.55388,1.57794 -11.73162,0.70613 -17.30201,-0.81253 -4.82557,-1.3156 -10.1121,-3.12353 -13.27185,-7.00077 -2.61661,-3.21077 -3.2039,-7.800383 -3.45998,-11.934406 -0.45323,-10.99246 4.74703,-22.449111 10.5214,-24.469178 3.16657,-1.385269 5.45252,0.906258 8.88414,0.493829 4.07662,-0.489949 9.67486,-4.637463 13.55105,-3.283203 3.36954,-0.876934 7.785,1.952622 13.22978,2.548745 1.94268,0.212195 3.92472,0.05972 5.85847,-0.22247 2.32569,-0.339383 4.48164,-1.62979 6.82851,-1.757103 3.67506,-0.199364 6.70217,3.898489 10.31116,4.62029 2.22888,0.44578 4.95267,-1.210002 7.22164,-1.345823 3.68206,-0.220409 7.04242,-2.306133 10.31346,-4.010961 1.52012,-0.792268 4.27316,-2.861138 4.27316,-2.861138"
       id="path5212"
       sodipodi:nodetypes="csssssssssssssssssssssssccsccsssssc" /><path
       style="font-variation-settings:normal;opacity:1;vector-effect:none;fill:none;fill-opacity:1;fill-rule:evenodd;stroke:#338000;stroke-width:1.14289;stroke-linecap:butt;stroke-linejoin:miter;stroke-miterlimit:4;stroke-dasharray:none;stroke-dashoffset:0;stroke-opacity:1;-inkscape-stroke:none;stop-color:#000000;stop-opacity:1"
       d="m 193.43161,44.493116 c -7.30533,1.076037 -8.39302,4.225268 -12.9262,5.280652 -4.36663,1.01661 -8.9353,1.0347 -13.41763,0.935987 -3.22556,-0.07104 -6.40644,-0.774707 -9.61654,-1.097978 -2.54606,-0.256399 -5.09326,-0.81823 -7.64775,-0.667409 -2.07454,0.122484 -4.22971,0.371287 -6.10392,1.269095 -3.35725,1.608235 -7.20788,3.65278 -8.6239,7.095516 -0.67244,1.634885 1.94739,9.369957 2.1272,11.128563"
       id="path5214"
       sodipodi:nodetypes="cssssssc" /><path
       style="font-variation-settings:normal;opacity:1;vector-effect:none;fill:none;fill-opacity:1;fill-rule:evenodd;stroke:#338000;stroke-width:1.14289;stroke-linecap:butt;stroke-linejoin:miter;stroke-miterlimit:4;stroke-dasharray:none;stroke-dashoffset:0;stroke-opacity:1;-inkscape-stroke:none;stop-color:#000000;stop-opacity:1"
       d="m 222.55131,62.598254 c 3.76288,-1.924772 20.6989,7.900339 21.16036,10.554444 0.42199,3.601239 -5.65961,4.731735 -7.56395,7.817265 -2.22445,3.604201 -3.37351,7.837775 -4.20122,11.991491 -0.58367,2.929073 -1.38795,6.092553 -0.50506,8.945736 1.59964,5.16949 7.16082,8.19736 9.9095,12.85861 1.3112,2.22354 3.16069,4.52518 3.07987,7.10527 -0.12807,4.08844 -2.84146,7.88909 -5.57552,10.93156 -1.5161,1.68712 -4.62198,1.72292 -5.69814,3.71962 -1.6961,3.14695 3.07926,7.74838 0.55623,10.28103"
       id="path5216"
       sodipodi:nodetypes="ccsssssssc" /><path
       style="font-variation-settings:normal;opacity:1;vector-effect:none;fill:none;fill-opacity:1;fill-rule:evenodd;stroke:#338000;stroke-width:1.14289;stroke-linecap:butt;stroke-linejoin:miter;stroke-miterlimit:4;stroke-dasharray:none;stroke-dashoffset:0;stroke-opacity:1;-inkscape-stroke:none;stop-color:#000000;stop-opacity:1"
       d="m 268.84849,131.83085 c -1.96919,-0.85642 -4.60001,-3.31368 -7.29873,-3.63001 -3.13664,-0.36766 -6.38337,0.77285 -9.2288,2.14295 -2.4479,1.17869 -4.11338,3.57761 -6.39205,5.05721 -3.71306,2.41098 -9.67875,3.45061 -12.2809,7.0323"
       id="path5218"
       sodipodi:nodetypes="csssc" /><path
       style="font-variation-settings:normal;opacity:1;vector-effect:none;fill:none;fill-opacity:1;fill-rule:evenodd;stroke:#338000;stroke-width:1.14289;stroke-linecap:butt;stroke-linejoin:miter;stroke-miterlimit:4;stroke-dasharray:none;stroke-dashoffset:0;stroke-opacity:1;-inkscape-stroke:none;stop-color:#000000;stop-opacity:1"
       d="M 90.447931,90.595944 105.52061,86.210598"
       id="path5230"
       sodipodi:nodetypes="cc" /><path
       style="font-variation-settings:normal;opacity:1;vector-effect:none;fill:none;fill-opacity:1;fill-rule:evenodd;stroke:#338000;stroke-width:1.14289;stroke-linecap:butt;stroke-linejoin:miter;stroke-miterlimit:4;stroke-dasharray:none;stroke-dashoffset:0;stroke-opacity:1;-inkscape-stroke:none;stop-color:#000000;stop-opacity:1"
       d="m 227.28939,70.771202 7.4057,-4.437407"
       id="path5242" /><path
       style="font-variation-settings:normal;opacity:1;vector-effect:none;fill:none;fill-opacity:1;fill-rule:evenodd;stroke:#338000;stroke-width:1.14289;stroke-linecap:butt;stroke-linejoin:miter;stroke-miterlimit:4;stroke-dasharray:none;stroke-dashoffset:0;stroke-opacity:1;-inkscape-stroke:none;stop-color:#000000;stop-opacity:1"
       d="m 143.45277,181.3615 c 1.07663,0.0829 15.7168,0.99966 23.45571,-0.11426 6.7024,-0.96473 13.58366,-2.37192 19.51743,-5.63431 7.08836,-3.89718 12.2966,-10.52325 18.17459,-16.08042 2.69093,-2.54406 5.29415,-5.18318 7.81651,-7.89447 1.64812,-1.77157 4.7766,-5.46598 4.7766,-5.46598"
       id="path5254"
       sodipodi:nodetypes="caaaac" /></g><g
     inkscape:groupmode="layer"
     id="layer6"
     inkscape:label="brown"
     style="display:inline"
     transform="translate(-51.641832,43.423982)"><path
       style="font-variation-settings:normal;opacity:1;vector-effect:none;fill:none;fill-opacity:1;fill-rule:evenodd;stroke:#aa4400;stroke-width:1.14289;stroke-linecap:butt;stroke-linejoin:miter;stroke-miterlimit:4;stroke-dasharray:none;stroke-dashoffset:0;stroke-opacity:1;-inkscape-stroke:none;stop-color:#000000;stop-opacity:1"
       d="m -228.96281,-823.18685 c 4.03785,0.0727 17.41785,3.81295 25.11008,8.07009 8.62804,4.77506 16.9975,10.96174 22.62708,19.05817 1.48798,2.14001 0.39481,6.94772 2.63969,7.3604 m 20.52309,2.07863 c 7.80003,-0.0834 14.26246,8.61531 21.39327,12.92366 4.54428,2.7456 9.22054,5.28385 13.6323,8.23769 6.4588,4.3244 12.0346,9.95032 18.75342,13.85851 3.94416,2.29423 8.160765,4.18086 12.514191,5.54746 8.912028,2.79761 18.301852,3.76765 27.512423,5.32209 8.74383,1.47567 18.704341,-0.72697 26.329764,3.79908 3.354017,1.99077 4.303829,6.56077 7.013784,9.3659 0.795344,0.82328 1.647626,1.64958 2.676138,2.15209 1.066128,0.52089 2.338397,1.19087 3.464629,0.81729 2.911386,-0.96572 2.927794,-6.36331 5.918084,-7.04665 4.815581,-1.10045 9.1141494,3.83568 13.5135854,6.08196 2.5279037,1.29071 4.58567495,3.76653 7.3842207,4.24019 3.0339722,0.51352 6.3052335,-3.05258 9.0722799,-1.70642 3.243318,1.57786 2.067809,7.48676 4.98991,9.60102 1.200834,0.86885 3.771753,-0.63386 4.388934,0.71373 1.76438,3.85245 -6.789763,6.59792 -6.651122,10.83291 0.100876,3.08141 4.818705,4.51082 5.344557,7.5487 0.563959,3.25803 -1.831257,6.35489 -2.677186,9.55132 -0.75095,2.83755 -1.880695,5.61981 -2.128626,8.54455 -0.281877,3.3252 -1.088231,7.19823 0.750305,9.98323 2.274802,3.44585 7.632137,3.30989 10.993782,5.70738 4.20529,2.99917 7.299206,7.32628 11.229683,10.67752 1.255129,1.07016 2.970597,1.66284 3.93372,3.00186 2.212619,3.07619 -0.104357,10.35949 3.663553,10.76132 6.189068,0.66003 8.706303,5.43037 12.707487,8.4871 2.666471,2.03707 5.477728,4.0307 8.628274,5.1856 4.706325,1.7252 9.849774,1.96631 14.841855,2.41902 5.409089,0.49053 10.865089,0.069 16.290819,0.31462 4.220706,0.19104 9.496896,-1.91894 12.643006,0.90114 2.25344,2.01992 1.7582,5.90802 1.62838,8.93146 -0.2018,4.6998 -2.46888,9.07856 -3.71197,13.61547 -1.02501,3.74099 -2.24821,7.43246 -3.0893,11.21904 -0.31172,1.40336 0.31103,3.253 -0.72303,4.25166 -1.62207,1.56653 -4.469853,0.60081 -6.704779,0.90122"
       id="path5081"
       sodipodi:nodetypes="caaccaaaaaaaaaaaaaaaaaaaaaaassaaaaaaaac"
       transform="translate(282.73825,780.33422)" /><path
       style="font-variation-settings:normal;opacity:1;vector-effect:none;fill:none;fill-opacity:1;fill-rule:evenodd;stroke:#aa4400;stroke-width:1.14289;stroke-linecap:butt;stroke-linejoin:miter;stroke-miterlimit:4;stroke-dasharray:none;stroke-dashoffset:0;stroke-opacity:1;-inkscape-stroke:none;stop-color:#000000;stop-opacity:1"
       d="m 99.918029,-567.64512 c 0,0 -8.689051,-0.22526 -12.282003,1.82988 -4.185755,2.39422 -5.420688,8.12553 -9.091348,11.25268 -4.304038,3.66675 -9.409538,6.48827 -14.720517,8.42819 -6.070166,2.21722 -12.649936,2.763 -19.072569,3.47908 -2.503818,0.27916 -5.198205,-0.58499 -7.551446,0.31462 -4.30152,1.6444 -6.640377,6.54486 -10.666968,8.77952 -4.527719,2.51277 -9.586788,4.29828 -14.723163,4.95548 -3.9693135,0.50787 -7.9740535,-0.88485 -11.97549106,-0.84147 -4.57429254,0.0496 -9.31833924,2.68173 -13.66586094,1.25847 -1.346525,-0.44082 -2.240931,-1.7588 -3.1827,-2.81735 -2.770138,-3.11363 -5.104033,-6.62676 -7.141371,-10.26236 -1.766492,-3.15228 -2.293896,-6.95972 -4.356962,-9.92639 -1.165549,-1.67605 -2.380721,-3.96305 -4.400553,-4.25957 -2.58279,-0.37916 -4.368837,3.24498 -6.955099,3.59968 -3.348372,0.45923 -6.551581,-1.8906 -9.926847,-2.06399 -3.921676,-0.20146 -7.82822,0.67184 -11.718893,1.20363 -1.783771,0.24381 -3.585004,1.3769 -5.323821,0.91021 -3.166046,-0.84975 -4.751712,-4.59915 -7.561064,-6.28837 -2.785644,-1.67496 -5.773276,-3.77075 -9.022895,-3.698 -1.681549,0.0377 -2.899631,2.02144 -4.578675,2.1206 -2.022782,0.11946 -3.852261,-1.25847 -5.778392,-1.88771"
       id="path5083"
       sodipodi:nodetypes="caaaaaaaaaaaaaaaaaaaac"
       transform="translate(282.73825,780.33422)" /><path
       style="font-variation-settings:normal;opacity:1;vector-effect:none;fill:none;fill-opacity:1;fill-rule:evenodd;stroke:#aa4400;stroke-width:1.14289;stroke-linecap:butt;stroke-linejoin:miter;stroke-miterlimit:4;stroke-dasharray:none;stroke-dashoffset:0;stroke-opacity:1;-inkscape-stroke:none;stop-color:#000000;stop-opacity:1"
       d="m -17.278011,-529.51882 c -1.441517,0.22247 -6.633049,2.0142 -9.403393,3.99494 -3.513523,2.5121 -5.105548,7.18033 -8.651766,9.64606 -2.305861,1.6033 -5.031048,3.01373 -7.838501,3.08964 -2.813034,0.0761 -5.803518,-0.92019 -8.00989,-2.66686 -3.189753,-2.52517 -4.26372,-6.93001 -6.409912,-10.38614 -1.689992,-2.72149 -2.486481,-6.28732 -5.092509,-8.15043 -3.616395,-2.58545 -9.382221,-0.42801 -12.98842,-3.02766 -2.737238,-1.97323 -3.87223,-5.56783 -5.296347,-8.62692 -1.452106,-3.11921 -1.678969,-6.73678 -3.254748,-9.79537 -0.409535,-0.79491 -0.903384,-1.58413 -1.581888,-2.16657 -1.795229,-1.54105 -4.200243,-2.17914 -6.300364,-3.26871"
       id="path5085"
       sodipodi:nodetypes="caaaaaaaaaac"
       transform="translate(282.73825,780.33422)" /><path
       style="font-variation-settings:normal;opacity:1;vector-effect:none;fill:none;fill-opacity:1;fill-rule:evenodd;stroke:#aa4400;stroke-width:1.14289;stroke-linecap:butt;stroke-linejoin:miter;stroke-miterlimit:4;stroke-dasharray:none;stroke-dashoffset:0;stroke-opacity:1;-inkscape-stroke:none;stop-color:#000000;stop-opacity:1"
       d="m -45.925078,-552.46224 c 0,-1.26681 -1.439775,-10.83569 -1.439775,-10.83569"
       id="path5087"
       sodipodi:nodetypes="cc"
       transform="translate(282.73825,780.33422)" /><path
       style="font-variation-settings:normal;opacity:1;vector-effect:none;fill:none;fill-opacity:1;fill-rule:evenodd;stroke:#aa4400;stroke-width:1.14289;stroke-linecap:butt;stroke-linejoin:miter;stroke-miterlimit:4;stroke-dasharray:none;stroke-dashoffset:0;stroke-opacity:1;-inkscape-stroke:none;stop-color:#000000;stop-opacity:1"
       d="m -197.21091,-535.85408 c 2.2247,-3.48363 3.61775,-9.94644 7.59225,-13.01905 2.21742,-1.71425 5.29608,-2.14607 8.09612,-2.2701 5.12178,-0.22687 11.55877,4.67592 14.95462,-1.33068 2.3183,-4.10062 9.75616,-0.56615 13.82122,-2.94625 3.71683,-2.17621 5.69226,-6.46538 8.534,-9.70192 2.4972,-2.84412 6.66728,-4.84343 7.48388,-8.53913 1.11149,-5.03027 -3.60997,-9.73319 -4.34084,-14.83269 -0.2913,-2.03252 -1.15277,-4.46072 0,-6.15988 0.57559,-0.84841 1.90528,-0.75786 2.85792,-1.13679"
       id="path5089"
       sodipodi:nodetypes="cassaaaaac"
       transform="translate(282.73825,780.33422)" /><path
       style="font-variation-settings:normal;opacity:1;vector-effect:none;fill:none;fill-opacity:1;fill-rule:evenodd;stroke:#aa4400;stroke-width:1.14289;stroke-linecap:butt;stroke-linejoin:miter;stroke-miterlimit:4;stroke-dasharray:none;stroke-dashoffset:0;stroke-opacity:1;-inkscape-stroke:none;stop-color:#000000;stop-opacity:1"
       d="m -91.618445,-567.03461 c 2.164456,-0.92349 6.356089,-2.88951 7.845126,-5.77517 1.845871,-3.57719 2.139227,-8.5472 0.199604,-12.07443 -1.489779,-2.70918 -5.083171,-3.59397 -7.913589,-4.8381 -4.917463,-2.1615 -10.236396,-3.32268 -15.489136,-4.44618 -2.5639,-0.54839 -5.16501,-1.15022 -7.78663,-1.11234 -3.05394,0.0441 -6.14955,0.54014 -9.02946,1.55728 -2.06987,0.73105 -5.75315,3.20473 -5.75315,3.20473"
       id="path5091"
       sodipodi:nodetypes="caaaaaac"
       transform="translate(282.73825,780.33422)" /><path
       style="font-variation-settings:normal;opacity:1;vector-effect:none;fill:none;fill-opacity:1;fill-rule:evenodd;stroke:#aa4400;stroke-width:1.14289;stroke-linecap:butt;stroke-linejoin:miter;stroke-miterlimit:4;stroke-dasharray:none;stroke-dashoffset:0;stroke-opacity:1;-inkscape-stroke:none;stop-color:#000000;stop-opacity:1"
       d="m -81.690442,-698.77388 c -2.453296,1.94003 -8.502843,10.27453 -12.55323,15.56968 -1.604807,2.098 -4.178308,3.81641 -4.651971,6.41499 -0.703299,3.8584 3.905575,7.51073 3.102328,11.34957 -0.604303,2.88806 -4.031793,4.36342 -5.561535,6.8865 -1.11626,1.84112 -2.5089,3.77013 -2.57896,5.92208 -0.11395,3.50032 4.380452,6.4806 3.5595,9.8852 -0.48888,2.02746 -3.1076,2.78643 -4.56968,4.27368 -2.18054,2.21809 -4.63004,4.27175 -6.25648,6.92304 -1.28795,2.09951 -0.72292,5.35677 -2.64198,6.90077 -2.34567,1.88723 -6.00898,0.622 -8.93061,1.34856 -2.09806,0.52175 -3.97896,1.84663 -6.11977,2.14832 -2.53476,0.35721 -7.66668,-0.44211 -7.66668,-0.44211"
       id="path5093"
       sodipodi:nodetypes="caaaaaaaaaaac"
       transform="translate(282.73825,780.33422)" /><path
       style="font-variation-settings:normal;opacity:1;vector-effect:none;fill:none;fill-opacity:1;fill-rule:evenodd;stroke:#aa4400;stroke-width:1.14289;stroke-linecap:butt;stroke-linejoin:miter;stroke-miterlimit:4;stroke-dasharray:none;stroke-dashoffset:0;stroke-opacity:1;-inkscape-stroke:none;stop-color:#000000;stop-opacity:1"
       d="m -135.0268,-600.37204 c 3.48589,-3.1094 7.50682,-5.85534 8.40735,-10.1572 1.21496,-5.80391 -2.31255,-11.7644 -4.89405,-17.10269 -2.3762,-4.91376 -7.66589,-8.18104 -9.54269,-13.30637 -0.95763,-2.61518 -1.4741,-5.66294 -0.66675,-8.32835 1.22938,-4.05873 6.98482,-5.84213 7.88167,-9.98705 0.52366,-2.42016 -1.19747,-4.80542 -1.77976,-7.21215 -1.36431,-5.63899 -3.98894,-11.13383 -4.01576,-16.93545 -0.012,-2.60256 -0.0793,-5.74366 1.73111,-7.61343 3.83534,-3.96119 10.60698,-3.05132 16.00264,-4.18607 3.1526,-0.66302 7.0233,0.47955 9.54322,-1.52757 2.78917,-2.22157 2.88553,-6.53344 4.01066,-9.91706 1.14949,-3.4569 0.57062,-7.67579 2.78564,-10.56806 1.53271,-2.00135 5.41225,-1.52124 6.557623,-3.76685 1.844447,-3.61622 1.229034,-8.92617 -1.289543,-12.10984 -2.43303,-3.07553 -7.62189,-2.08892 -11.09776,-3.90464 -5.62993,-2.94097 -13.60971,-5.06448 -15.45916,-11.14107 -0.75291,-2.47378 1.24618,-5.13386 2.69954,-7.27261 1.60189,-2.35732 6.35715,-5.71785 6.35715,-5.71785"
       id="path5095"
       sodipodi:nodetypes="caaaaaaaaaaaaaaaaac"
       transform="translate(282.73825,780.33422)" /><path
       style="font-variation-settings:normal;opacity:1;vector-effect:none;fill:none;fill-opacity:1;fill-rule:evenodd;stroke:#aa4400;stroke-width:1.14289;stroke-linecap:butt;stroke-linejoin:miter;stroke-miterlimit:4;stroke-dasharray:none;stroke-dashoffset:0;stroke-opacity:1;-inkscape-stroke:none;stop-color:#000000;stop-opacity:1"
       d="m -92.166675,-640.04087 c -1.653018,1.2856 -12.777315,1.56869 -12.777315,1.56869"
       id="path5097"
       sodipodi:nodetypes="cc"
       transform="translate(282.73825,780.33422)" /><path
       style="font-variation-settings:normal;opacity:1;vector-effect:none;fill:none;fill-opacity:1;fill-rule:evenodd;stroke:#aa4400;stroke-width:1.14289;stroke-linecap:butt;stroke-linejoin:miter;stroke-miterlimit:4;stroke-dasharray:none;stroke-dashoffset:0;stroke-opacity:1;-inkscape-stroke:none;stop-color:#000000;stop-opacity:1"
       d="m 13.842941,-701.87905 c 0,0 -7.8440614,1.87604 -11.7148765,3.0014 -5.1328731,1.49227 -10.4188609,2.67485 -15.2469055,4.96903 -4.484534,2.13095 -8.040258,5.93023 -12.523107,8.06472 -4.925983,2.34549 -10.361814,6.77195 -15.554008,5.09632 -2.475738,-0.79897 -4.004159,-3.77391 -4.596833,-6.30697 -0.636833,-2.72179 -0.346583,-6.09846 1.419942,-8.26481 3.598561,-4.41305 10.818299,-3.67132 15.909546,-6.22158 4.466308,-2.23722 8.098177,-6.0356 12.728816,-7.90917 4.538195,-1.83617 9.5016234,-2.4624 14.3549683,-3.10408 2.8242771,-0.37341 5.6905854,-0.28486 8.535908,-0.42669 2.9828917,-0.14869 8.9487377,-0.44481 8.9487377,-0.44481"
       id="path5099"
       sodipodi:nodetypes="caaaaaaaaaac"
       transform="translate(282.73825,780.33422)" /><path
       style="font-variation-settings:normal;opacity:1;vector-effect:none;fill:none;fill-opacity:1;fill-rule:evenodd;stroke:#aa4400;stroke-width:1.14289;stroke-linecap:butt;stroke-linejoin:miter;stroke-miterlimit:4;stroke-dasharray:none;stroke-dashoffset:0;stroke-opacity:1;-inkscape-stroke:none;stop-color:#000000;stop-opacity:1"
       d="m -50.419293,-709.2419 c 0.667406,-2.28324 1.48371,-7.8794 4.239167,-10.42491 1.979044,-1.82825 5.138604,-1.62215 7.704799,-2.44298 3.41536,-1.09245 10.237745,-3.30329 10.237745,-3.30329"
       id="path5101"
       sodipodi:nodetypes="caac"
       transform="translate(282.73825,780.33422)" /><path
       style="font-variation-settings:normal;opacity:1;vector-effect:none;fill:none;fill-opacity:1;fill-rule:evenodd;stroke:#aa4400;stroke-width:1.14289;stroke-linecap:butt;stroke-linejoin:miter;stroke-miterlimit:4;stroke-dasharray:none;stroke-dashoffset:0;stroke-opacity:1;-inkscape-stroke:none;stop-color:#000000;stop-opacity:1"
       d="m 16.20821,-613.03304 c 1.930586,0.47193 4.859436,1.71878 7.022624,0.78655 3.511099,-1.51311 4.148632,-6.50747 6.899804,-9.16235 2.26251,-2.18332 5.462842,-3.22616 7.732236,-5.40232 2.812025,-2.6965 7.089855,-9.29201 7.089855,-9.29201"
       id="path5186"
       sodipodi:nodetypes="csssc"
       transform="translate(282.73825,780.33422)" /><path
       style="font-variation-settings:normal;opacity:1;fill:none;fill-opacity:1;fill-rule:evenodd;stroke:#aa4400;stroke-width:1.143;stroke-linecap:butt;stroke-linejoin:miter;stroke-miterlimit:4;stroke-dasharray:none;stroke-dashoffset:0;stroke-opacity:1;marker-start:url(#TriangleStart);marker-end:url(#TriangleStart);stop-color:#000000;stop-opacity:1"
       d="m 126.66721,-12.850265 47.36915,-18.586612"
       id="path7695"
       sodipodi:nodetypes="cc" /><g
       id="g1218"
       transform="translate(-15.037117,250.19553)"><text
         xml:space="preserve"
         style="font-style:normal;font-variant:normal;font-weight:normal;font-stretch:normal;font-size:8.46667px;line-height:125%;font-family:Arimo;-inkscape-font-specification:Arimo;font-variant-ligatures:none;letter-spacing:0px;word-spacing:0px;writing-mode:lr-tb;fill:#000000;stroke:none;stroke-width:0.264583px;stroke-linecap:butt;stroke-linejoin:miter;stroke-opacity:1"
         id="text438"
         transform="translate(-1.0196679,-0.71492627)"><textPath
           xlink:href="#path7695-6"
           id="textPath1208"><tspan
             id="tspan436"
             style="font-style:normal;font-variant:normal;font-weight:normal;font-stretch:normal;font-size:8.46667px;font-family:Arimo;-inkscape-font-specification:Arimo;fill:#000000;stroke:none;stroke-width:0.264583px"
             dx="0 0.77864146"> Ouvéa</tspan></textPath></text><path
         style="font-variation-settings:normal;display:inline;opacity:1;vector-effect:none;fill:none;fill-opacity:1;fill-rule:evenodd;stroke:#008000;stroke-width:1.14289;stroke-linecap:butt;stroke-linejoin:miter;stroke-miterlimit:4;stroke-dasharray:none;stroke-dashoffset:0;stroke-opacity:1;-inkscape-stroke:none;marker-start:url(#TriangleStart-4);marker-end:url(#TriangleStart-4);stop-color:#000000;stop-opacity:1"
         d="m 408.69491,-107.47699 22.09291,-23.07374"
         id="path7695-6"
         sodipodi:nodetypes="cc" /></g><text
       xml:space="preserve"
       style="font-style:normal;font-variant:normal;font-weight:normal;font-stretch:normal;font-size:8.46667px;line-height:125%;font-family:Arimo;-inkscape-font-specification:Arimo;font-variant-ligatures:none;letter-spacing:0px;word-spacing:0px;writing-mode:lr-tb;fill:#000000;stroke:none;stroke-width:0.264583px;stroke-linecap:butt;stroke-linejoin:miter;stroke-opacity:1"
       id="text598"
       transform="translate(-0.75713319,-0.43164467)"><textPath
         xlink:href="#path7695"
         id="textPath605"><tspan
           id="tspan596"
           style="font-style:normal;font-variant:normal;font-weight:normal;font-stretch:normal;font-size:8.46667px;font-family:Arimo;-inkscape-font-specification:Arimo;fill:#000000;stroke:none;stroke-width:0.264583px"> Iles Loyauté</tspan></textPath></text><g
       id="g1170"
       transform="rotate(-15.937152,328.87842,261.75164)"><path
         style="font-variation-settings:normal;display:inline;fill:none;fill-opacity:1;fill-rule:evenodd;stroke:#aa4400;stroke-width:1.143;stroke-linecap:butt;stroke-linejoin:miter;stroke-miterlimit:4;stroke-dasharray:none;stroke-dashoffset:0;stroke-opacity:1;marker-start:url(#TriangleStart-0);marker-end:url(#TriangleStart-0);stop-color:#000000"
         d="m 417.01682,222.99976 39.69801,-31.83343"
         id="path7695-61"
         sodipodi:nodetypes="cc" /><text
         xml:space="preserve"
         style="font-style:normal;font-variant:normal;font-weight:normal;font-stretch:normal;font-size:8.46667px;line-height:125%;font-family:Arimo;-inkscape-font-specification:Arimo;font-variant-ligatures:none;letter-spacing:0px;word-spacing:0px;writing-mode:lr-tb;display:inline;fill:#000000;stroke:none;stroke-width:0.264583px;stroke-linecap:butt;stroke-linejoin:miter;stroke-opacity:1"
         id="text598-8"
         transform="translate(-0.75712975,-0.43163954)"><textPath
           xlink:href="#path7695-61"
           id="textPath605-7"><tspan
             id="tspan596-9"
             style="font-style:normal;font-variant:normal;font-weight:normal;font-stretch:normal;font-size:8.46667px;font-family:Arimo;-inkscape-font-specification:Arimo;fill:#000000;stroke:none;stroke-width:0.264583px"> Iles Loyauté</tspan></textPath></text></g></g><g
     inkscape:groupmode="layer"
     id="layer8"
     inkscape:label="blue"
     transform="translate(-51.641832,43.423982)"
     style="display:inline"><path
       style="font-variation-settings:normal;opacity:1;vector-effect:none;fill:none;fill-opacity:1;fill-rule:evenodd;stroke:#0066ff;stroke-width:1.14289;stroke-linecap:butt;stroke-linejoin:miter;stroke-miterlimit:4;stroke-dasharray:none;stroke-dashoffset:0;stroke-opacity:1;-inkscape-stroke:none;stop-color:#000000;stop-opacity:1"
       d="m 52.166406,228.64955 c 0.616217,1.4262 7.921901,21.29708 10.897134,32.24581 1.390883,5.11839 1.744353,10.48953 3.235732,15.57954 1.155256,3.94284 4.226218,7.40784 4.40276,11.51265 0.278444,6.47414 -4.160221,12.31882 -5.359427,18.68702 -0.538812,2.86128 -1.660743,5.91223 -0.810821,8.69699 1.275377,4.17875 6.13524,6.35008 8.296714,10.147 3.509029,6.16408 4.148165,13.63173 7.288887,19.99137 1.684199,3.41033 3.434421,6.94317 6.136484,9.62006 4.17645,4.13754 10.103371,6.02859 14.957391,9.34529 6.58136,4.49697 12.71028,9.62512 19.17494,14.2883 5.13139,3.70145 9.40151,9.43229 15.56434,10.86456 6.34234,1.47399 13.96656,0.75415 19.30679,-2.97143 3.82072,-2.6655 5.12911,-7.86763 6.7643,-12.22984 2.36665,-6.31354 1.1041,-13.81478 4.25748,-19.77448 1.24616,-2.35517 2.98335,-4.95403 5.51433,-5.78702 5.01916,-1.6519 10.35671,2.20497 15.61373,2.73836 4.94781,0.50201 10.70286,3.07321 14.91353,0.42688 4.20323,-2.64166 3.62171,-9.28177 6.07263,-13.599 2.23647,-3.93949 3.94426,-8.7652 7.81529,-11.11817 1.79359,-1.09022 4.23334,-1.45757 6.24018,-0.84264 5.62474,1.72352 9.04583,7.55403 13.16438,11.75472 2.21831,2.26255 3.74648,5.19694 6.19001,7.21416 2.59914,2.14569 6.0119,3.09136 8.78177,5.0116 2.35372,1.63174 4.7286,3.33119 6.60579,5.49423 1.55765,1.79484 3.3663,3.72199 3.74182,6.06862 0.42672,2.6666 -0.88409,5.37149 -1.88771,7.8786 -0.89213,2.22859 -3.29186,3.84846 -3.61811,6.22671 -0.25516,1.86007 1.00845,3.61892 1.4138,5.45213 0.68989,3.12003 0.35804,6.54302 1.7304,9.4287 0.63844,1.34245 1.93248,2.25935 2.89448,3.39264 0.1398,0.16469 0.27877,0.33008 0.41816,0.49512"
       id="path5267"
       sodipodi:nodetypes="caaaaaaaaaaaaaaaaaaaaaaaaaaaaaac" /><path
       style="font-variation-settings:normal;opacity:1;vector-effect:none;fill:none;fill-opacity:1;fill-rule:evenodd;stroke:#0066ff;stroke-width:1.14289;stroke-linecap:butt;stroke-linejoin:miter;stroke-miterlimit:4;stroke-dasharray:none;stroke-dashoffset:0;stroke-opacity:1;-inkscape-stroke:none;stop-color:#000000;stop-opacity:1"
       d="m 333.59859,226.39688 c -2.76691,0 -4.26878,1.47768 -6.40873,2.2002 -5.57239,1.88143 -11.0259,4.18968 -16.74567,5.55917 -2.43631,0.58333 -4.9436,1.41127 -7.43169,1.11927 -2.96636,-0.34812 -5.32866,-3.5195 -8.31054,-3.34954 -1.55668,0.0887 -3.18606,0.97555 -4.1117,2.23027 -1.90461,2.58172 -0.98217,6.36 -1.88773,9.43778 -0.88925,3.02236 -3.43343,5.64464 -3.4608,8.79499 -0.0287,3.30249 3.39029,5.97964 3.46721,9.28136 0.10854,4.65897 -3.0112,8.82538 -4.27731,13.31033 -1.01514,3.59594 -2.85903,7.15884 -2.65747,10.88988 0.17896,3.31265 3.00669,6.06269 3.38735,9.35826 0.35744,3.09458 0.10625,6.40648 -1.09371,9.28124 -1.19514,2.8632 -3.9309,4.8032 -5.80594,7.27514 -2.04663,2.69815 -3.24306,6.19332 -5.93881,8.2431 -3.55254,2.70126 -8.31588,3.25681 -12.55966,4.63798 -2.01595,0.65611 -4.16537,0.90988 -6.12018,1.73041 -2.05561,0.86285 -4.74966,1.35605 -5.80641,3.31904 -0.81591,1.51562 -0.60567,3.70814 0.32933,5.15334 1.1018,1.70301 5.38009,2.84297 5.38009,2.84297"
       id="path5269"
       sodipodi:nodetypes="caaaaaaaaaaaaaaaaaac" /><path
       style="font-variation-settings:normal;opacity:1;vector-effect:none;fill:none;fill-opacity:1;fill-rule:evenodd;stroke:#0066ff;stroke-width:1.14289;stroke-linecap:butt;stroke-linejoin:miter;stroke-miterlimit:4;stroke-dasharray:none;stroke-dashoffset:0;stroke-opacity:1;-inkscape-stroke:none;stop-color:#000000;stop-opacity:1"
       d="m 215.85192,310.50374 c 0,0 2.03742,-5.60722 0.59802,-7.76937 -1.72935,-2.59769 -5.91481,-1.99339 -8.88893,-2.93852 -3.27396,-1.04042 -7.20338,-0.8261 -9.85737,-3.0073 -0.55877,-0.45923 -0.68213,-1.27561 -1.02319,-1.91342"
       id="path5271"
       sodipodi:nodetypes="caaac" /><path
       style="font-variation-settings:normal;opacity:1;vector-effect:none;fill:none;fill-opacity:1;fill-rule:evenodd;stroke:#0066ff;stroke-width:1.14289;stroke-linecap:butt;stroke-linejoin:miter;stroke-miterlimit:4;stroke-dasharray:none;stroke-dashoffset:0;stroke-opacity:1;-inkscape-stroke:none;stop-color:#000000;stop-opacity:1"
       d="m 194.12926,286.19063 c 2.43453,0 12.48479,0.72462 18.6642,0.003 3.1357,-0.36618 6.11039,-1.61556 9.21585,-2.18374 3.96147,-0.7248 7.95374,-1.53219 11.98089,-1.55731 4.45506,-0.0278 8.81926,1.56642 13.27439,1.55731 4.30511,-0.009 8.59359,-0.74366 12.82112,-1.55731 2.14638,-0.4131 4.15372,-1.76465 6.33793,-1.68201 3.28153,0.12416 6.18333,2.21643 9.30383,3.23932 2.00389,0.65686 6.04669,1.86034 6.04669,1.86034"
       id="path5273"
       sodipodi:nodetypes="caaaaaaac" /></g><g
     inkscape:groupmode="layer"
     id="layer12"
     inkscape:label="bubbles"
     style="display:inline"><circle
       style="color:#000000;font-variation-settings:normal;overflow:visible;opacity:0.44;vector-effect:none;fill:#803300;fill-opacity:1;stroke:none;stroke-width:1;stroke-linecap:butt;stroke-linejoin:miter;stroke-miterlimit:4;stroke-dasharray:3,3;stroke-dashoffset:0;stroke-opacity:1;-inkscape-stroke:none;marker-end:url(#TriangleStart);stop-color:#000000;stop-opacity:1"
       id="circle7538"
       cx="341.32788"
       cy="256.02533"
       r="10.318585" /><circle
       style="color:#000000;font-variation-settings:normal;overflow:visible;opacity:0.44;vector-effect:none;fill:#803300;fill-opacity:1;stroke:none;stroke-width:1;stroke-linecap:butt;stroke-linejoin:miter;stroke-miterlimit:4;stroke-dasharray:12, 12;stroke-dashoffset:0;stroke-opacity:1;-inkscape-stroke:none;marker-end:url(#TriangleStart);stop-color:#000000;stop-opacity:1"
       id="path7473"
       cx="62.717384"
       cy="36.567577"
       r="10.318585" /><circle
       style="color:#000000;font-variation-settings:normal;overflow:visible;opacity:0.44;vector-effect:none;fill:#008000;fill-opacity:1;stroke:none;stroke-width:1;stroke-linecap:butt;stroke-linejoin:miter;stroke-miterlimit:4;stroke-dasharray:12, 12;stroke-dashoffset:0;stroke-opacity:1;-inkscape-stroke:none;marker-end:url(#TriangleStart-9);stop-color:#000000"
       id="path7473-7"
       cx="333.35388"
       cy="198.09959"
       r="10.318585" /><circle
       style="color:#000000;font-variation-settings:normal;overflow:visible;opacity:0.44;vector-effect:none;fill:#0000ff;fill-opacity:1;stroke:none;stroke-width:1;stroke-linecap:butt;stroke-linejoin:miter;stroke-miterlimit:4;stroke-dasharray:3,3;stroke-dashoffset:0;stroke-opacity:1;-inkscape-stroke:none;marker-end:url(#TriangleStart-8);stop-color:#000000"
       id="path7473-0"
       cx="291.95456"
       cy="267.15601"
       r="10.318585" /><g
       id="g2458"
       transform="translate(-286.30919,-6.1353324)"><g
         id="g2272"><circle
           style="color:#000000;font-variation-settings:normal;display:inline;overflow:visible;opacity:0.44;vector-effect:none;fill:#803300;fill-opacity:1;stroke:none;stroke-width:1;stroke-linecap:butt;stroke-linejoin:miter;stroke-miterlimit:4;stroke-dasharray:12, 12;stroke-dashoffset:0;stroke-opacity:1;-inkscape-stroke:none;marker-end:url(#TriangleStart-02);stop-color:#000000"
           id="path7473-75"
           cx="574.72052"
           cy="21.220678"
           r="10.318585" /><text
           xml:space="preserve"
           style="font-style:normal;font-variant:normal;font-weight:600;font-stretch:normal;font-size:19.7556px;line-height:125%;font-family:'Linux Libertine O';-inkscape-font-specification:'Linux Libertine O Semi-Bold';font-variant-ligatures:none;letter-spacing:0px;word-spacing:0px;writing-mode:lr-tb;fill:#000000;stroke:none;stroke-width:0.264583px;stroke-linecap:butt;stroke-linejoin:miter;stroke-opacity:1"
           x="596.58405"
           y="27.601738"
           id="text2259"><tspan
             sodipodi:role="line"
             id="tspan2257"
             style="font-style:normal;font-variant:normal;font-weight:600;font-stretch:normal;font-size:19.7556px;font-family:'Linux Libertine O';-inkscape-font-specification:'Linux Libertine O Semi-Bold';fill:#000000;stroke:none;stroke-width:0.264583px"
             x="596.58405"
             y="27.601738">Garaatü</tspan></text></g><g
         id="g2331"
         transform="translate(0,2.3611708)"><circle
           style="color:#000000;font-variation-settings:normal;display:inline;overflow:visible;opacity:0.44;vector-effect:none;fill:#008000;fill-opacity:1;stroke:none;stroke-width:1;stroke-linecap:butt;stroke-linejoin:miter;stroke-miterlimit:4;stroke-dasharray:12, 12;stroke-dashoffset:0;stroke-opacity:1;-inkscape-stroke:none;marker-end:url(#TriangleStart-9-9);stop-color:#000000"
           id="path7473-7-2"
           cx="574.72052"
           cy="57.409473"
           r="10.318585" /><text
           xml:space="preserve"
           style="font-style:normal;font-variant:normal;font-weight:600;font-stretch:normal;font-size:19.7556px;line-height:125%;font-family:'Linux Libertine O';-inkscape-font-specification:'Linux Libertine O Semi-Bold';font-variant-ligatures:none;letter-spacing:0px;word-spacing:0px;writing-mode:lr-tb;fill:#000000;stroke:none;stroke-width:0.264583px;stroke-linecap:butt;stroke-linejoin:miter;stroke-opacity:1"
           x="597.15698"
           y="64.185646"
           id="text2263"><tspan
             sodipodi:role="line"
             id="tspan2261"
             style="font-style:normal;font-variant:normal;font-weight:600;font-stretch:normal;font-size:19.7556px;font-family:'Linux Libertine O';-inkscape-font-specification:'Linux Libertine O Semi-Bold';fill:#000000;stroke:none;stroke-width:0.264583px"
             x="597.15698"
             y="64.185646">Wéélèt</tspan></text></g><g
         id="g2390"><circle
           style="color:#000000;font-variation-settings:normal;display:inline;overflow:visible;opacity:0.44;vector-effect:none;fill:#0000ff;fill-opacity:1;stroke:none;stroke-width:1;stroke-linecap:butt;stroke-linejoin:miter;stroke-miterlimit:4;stroke-dasharray:12, 12;stroke-dashoffset:0;stroke-opacity:1;-inkscape-stroke:none;marker-end:url(#TriangleStart-8-8);stop-color:#000000"
           id="path7473-0-7"
           cx="574.72052"
           cy="98.32061"
           r="10.318585" /><text
           xml:space="preserve"
           style="font-style:normal;font-variant:normal;font-weight:600;font-stretch:normal;font-size:19.7556px;line-height:125%;font-family:'Linux Libertine O';-inkscape-font-specification:'Linux Libertine O Semi-Bold';font-variant-ligatures:none;letter-spacing:0px;word-spacing:0px;writing-mode:lr-tb;fill:#000000;stroke:none;stroke-width:0.264583px;stroke-linecap:butt;stroke-linejoin:miter;stroke-opacity:1"
           x="596.58405"
           y="104.89922"
           id="text2267"><tspan
             sodipodi:role="line"
             id="tspan2265"
             style="font-style:normal;font-variant:normal;font-weight:600;font-stretch:normal;font-size:19.7556px;font-family:'Linux Libertine O';-inkscape-font-specification:'Linux Libertine O Semi-Bold';fill:#000000;stroke:none;stroke-width:0.264583px"
             x="596.58405"
             y="104.89922">Goièta</tspan></text></g></g></g><g
     inkscape:groupmode="layer"
     id="layer2"
     inkscape:label="pseudobubbles"
     style="display:none"
     transform="translate(6.2122029e-7,-0.22578312)"><path
       style="opacity:0.44;fill:#0000ff;fill-rule:evenodd;stroke:#0000ff;stroke-width:0.264583px;stroke-linecap:butt;stroke-linejoin:miter;stroke-opacity:1"
       d="m 133.54148,329.79932 c 5.81472,-4.13602 14.71335,2.99079 12.15955,9.57999 -5.64619,5.46172 -17.51062,-2.61595 -12.15955,-9.57999 z"
       id="path7662"
       sodipodi:nodetypes="ccc" /><path
       style="opacity:0.44;fill:#0000ff;fill-rule:evenodd;stroke:#0000ff;stroke-width:0.264583px;stroke-linecap:butt;stroke-linejoin:miter;stroke-opacity:1"
       d="m 165.98626,354.85976 c 4.98943,3.09798 9.47208,9.99511 6.10896,15.74461 -5.89543,4.15738 -11.74739,-3.81202 -11.82219,-9.43171 -0.74148,-3.51726 1.26481,-8.78451 5.71323,-6.3129 z"
       id="path7664"
       sodipodi:nodetypes="ccc" /><path
       style="opacity:0.44;fill:#0000ff;fill-rule:evenodd;stroke:#0000ff;stroke-width:0.264583px;stroke-linecap:butt;stroke-linejoin:miter;stroke-opacity:1"
       d="m 202.43885,380.98961 c 7.66376,-2.31729 15.49342,2.97612 18.4007,9.97263 2.75829,6.03424 3.71462,14.29933 -1.33299,19.42941 -7.84274,2.79456 -15.51332,-3.5064 -18.7738,-10.24609 -3.05456,-5.86202 -4.32778,-14.65799 1.70609,-19.15595 z"
       id="path7666"
       sodipodi:nodetypes="cccc" /><path
       style="opacity:0.44;fill:#0000ff;fill-rule:evenodd;stroke:#0000ff;stroke-width:0.264583px;stroke-linecap:butt;stroke-linejoin:miter;stroke-opacity:1"
       d="m 205.47833,418.08572 c -6.02232,-0.93433 -5.95574,7.46041 -5.88809,11.65186 0.78355,14.09981 9.30596,10.71247 9.09205,-1.63534 -0.23307,-3.46998 -0.66305,-7.39761 -3.20396,-10.01652 z"
       id="path7668"
       sodipodi:nodetypes="cccc" /></g></svg>
