<?xml version="1.0" encoding="UTF-8" standalone="no"?>
<!-- Created with Inkscape (http://www.inkscape.org/) -->

<svg
   version="1.1"
   id="svg11157"
   width="125.08445"
   height="115.06919"
   viewBox="0 0 125.08445 115.06919"
   sodipodi:docname="north_new_caledonia2.svg"
   inkscape:version="1.2.2 (b0a8486541, 2022-12-01)"
   xmlns:inkscape="http://www.inkscape.org/namespaces/inkscape"
   xmlns:sodipodi="http://sodipodi.sourceforge.net/DTD/sodipodi-0.dtd"
   xmlns:xlink="http://www.w3.org/1999/xlink"
   xmlns="http://www.w3.org/2000/svg"
   xmlns:svg="http://www.w3.org/2000/svg">
  <defs
     id="defs11161">
    <marker
       style="overflow:visible"
       id="Arrow4"
       refX="0"
       refY="0"
       orient="auto-start-reverse"
       inkscape:stockid="Arrow4"
       markerWidth="3.33333334"
       markerHeight="4"
       viewBox="0 0 5 6"
       inkscape:isstock="true"
       inkscape:collect="always"
       preserveAspectRatio="xMidYMid">
      <path
         style="fill:context-stroke;fill-rule:evenodd;stroke:none"
         d="m 1,0 -3,3 h -2 l 3,-3 -3,-3 h 2 z"
         id="path1741" />
    </marker>
    <filter
       inkscape:collect="always"
       style="color-interpolation-filters:sRGB"
       id="filter12860"
       x="-0.0097653642"
       y="-0.012188093"
       width="1.0195307"
       height="1.0243762">
      <feGaussianBlur
         inkscape:collect="always"
         stdDeviation="0.17478756"
         id="feGaussianBlur12862" />
    </filter>
    <filter
       inkscape:collect="always"
       style="color-interpolation-filters:sRGB"
       id="filter12864"
       x="-0.019228457"
       y="-0.023556322"
       width="1.0384569"
       height="1.0471126">
      <feGaussianBlur
         inkscape:collect="always"
         stdDeviation="0.17478756"
         id="feGaussianBlur12866" />
    </filter>
    <filter
       inkscape:collect="always"
       style="color-interpolation-filters:sRGB"
       id="filter12868"
       x="-0.014802739"
       y="-0.013750418"
       width="1.0296055"
       height="1.0275008">
      <feGaussianBlur
         inkscape:collect="always"
         stdDeviation="0.17478756"
         id="feGaussianBlur12870" />
    </filter>
    <filter
       inkscape:collect="always"
       style="color-interpolation-filters:sRGB"
       id="filter12872"
       x="-0.031085098"
       y="-0.058922205"
       width="1.0621702"
       height="1.1178444">
      <feGaussianBlur
         inkscape:collect="always"
         stdDeviation="0.17478756"
         id="feGaussianBlur12874" />
    </filter>
    <filter
       inkscape:collect="always"
       style="color-interpolation-filters:sRGB"
       id="filter12876"
       x="-0.024330912"
       y="-0.034714718"
       width="1.0486618"
       height="1.0694294">
      <feGaussianBlur
         inkscape:collect="always"
         stdDeviation="0.17478756"
         id="feGaussianBlur12878" />
    </filter>
    <filter
       inkscape:collect="always"
       style="color-interpolation-filters:sRGB"
       id="filter12880"
       x="-0.025624586"
       y="-0.025679786"
       width="1.0512492"
       height="1.0513596">
      <feGaussianBlur
         inkscape:collect="always"
         stdDeviation="0.17478756"
         id="feGaussianBlur12882" />
    </filter>
    <filter
       inkscape:collect="always"
       style="color-interpolation-filters:sRGB"
       id="filter12884"
       x="-0.025252643"
       y="-0.017125049"
       width="1.0505053"
       height="1.0342501">
      <feGaussianBlur
         inkscape:collect="always"
         stdDeviation="0.17478756"
         id="feGaussianBlur12886" />
    </filter>
    <filter
       inkscape:collect="always"
       style="color-interpolation-filters:sRGB"
       id="filter12888"
       x="-0.14243979"
       y="-0.15764617"
       width="1.2848796"
       height="1.3152923">
      <feGaussianBlur
         inkscape:collect="always"
         stdDeviation="0.17478756"
         id="feGaussianBlur12890" />
    </filter>
    <filter
       inkscape:collect="always"
       style="color-interpolation-filters:sRGB"
       id="filter12892"
       x="-0.032067695"
       y="-0.023871111"
       width="1.0641354"
       height="1.0477422">
      <feGaussianBlur
         inkscape:collect="always"
         stdDeviation="0.17478756"
         id="feGaussianBlur12894" />
    </filter>
    <filter
       inkscape:collect="always"
       style="color-interpolation-filters:sRGB"
       id="filter12896"
       x="-0.02936431"
       y="-0.045618971"
       width="1.0587286"
       height="1.0912379">
      <feGaussianBlur
         inkscape:collect="always"
         stdDeviation="0.17478756"
         id="feGaussianBlur12898" />
    </filter>
    <filter
       inkscape:collect="always"
       style="color-interpolation-filters:sRGB"
       id="filter12900"
       x="-0.014058921"
       y="-0.012405325"
       width="1.0281178"
       height="1.0248106">
      <feGaussianBlur
         inkscape:collect="always"
         stdDeviation="0.17478756"
         id="feGaussianBlur12902" />
    </filter>
    <filter
       inkscape:collect="always"
       style="color-interpolation-filters:sRGB"
       id="filter12904"
       x="-0.074744905"
       y="-0.051237746"
       width="1.1494898"
       height="1.1024755">
      <feGaussianBlur
         inkscape:collect="always"
         stdDeviation="0.17478756"
         id="feGaussianBlur12906" />
    </filter>
    <filter
       inkscape:collect="always"
       style="color-interpolation-filters:sRGB"
       id="filter12908"
       x="-0.02423243"
       y="-0.021359811"
       width="1.0484649"
       height="1.0427196">
      <feGaussianBlur
         inkscape:collect="always"
         stdDeviation="0.17478756"
         id="feGaussianBlur12910" />
    </filter>
    <filter
       inkscape:collect="always"
       style="color-interpolation-filters:sRGB"
       id="filter12912"
       x="-0.014779969"
       y="-0.029560712"
       width="1.0295599"
       height="1.0591214">
      <feGaussianBlur
         inkscape:collect="always"
         stdDeviation="0.17478756"
         id="feGaussianBlur12914" />
    </filter>
    <filter
       inkscape:collect="always"
       style="color-interpolation-filters:sRGB"
       id="filter12916"
       x="-0.023166801"
       y="-0.016486909"
       width="1.0463336"
       height="1.0329738">
      <feGaussianBlur
         inkscape:collect="always"
         stdDeviation="0.17478756"
         id="feGaussianBlur12918" />
    </filter>
  </defs>
  <sodipodi:namedview
     id="namedview11159"
     pagecolor="#ffffff"
     bordercolor="#666666"
     borderopacity="1.0"
     inkscape:showpageshadow="2"
     inkscape:pageopacity="0.0"
     inkscape:pagecheckerboard="0"
     inkscape:deskcolor="#d1d1d1"
     showgrid="false"
     inkscape:zoom="8"
     inkscape:cx="-52.3125"
     inkscape:cy="82.375"
     inkscape:window-width="3840"
     inkscape:window-height="2136"
     inkscape:window-x="0"
     inkscape:window-y="0"
     inkscape:window-maximized="1"
     inkscape:current-layer="layer28" />
  <g
     inkscape:groupmode="layer"
     inkscape:label="Image"
     id="g11163"
     style="display:none;opacity:0.33"
     transform="translate(-3.8656193,-22.02836)">
    <image
       width="124.16"
       height="143.36"
       preserveAspectRatio="none"
       xlink:href="north_new_caledonia2.jpg"
       id="image11165"
       style="display:inline;fill:#ffaaaa" />
  </g>
  <g
     inkscape:groupmode="layer"
     id="layer12"
     inkscape:label="pac"
     style="display:inline"
     transform="translate(-3.8656193,-22.02836)">
    <path
       style="display:inline;opacity:0.4;mix-blend-mode:normal;fill:#00ff00;fill-rule:evenodd;stroke:none;stroke-width:0.135916;stroke-linecap:butt;stroke-linejoin:miter;stroke-opacity:1;filter:url(#filter12860)"
       d="m 112.08393,103.22673 c -0.72346,0.75565 -13.123933,9.15218 -14.801329,9.568 -0.335743,0.0832 -8.796411,2.39216 -8.811871,2.69395 -0.03791,0.73994 -0.08561,5.42453 -0.645427,5.24419 -0.364159,-0.11731 -0.491759,-0.81964 -0.908491,-0.56982 -1.320407,1.18909 -1.338817,1.6722 -2.278873,0.47088 -0.370089,-0.0826 -0.67001,0.35698 -1.017707,0.50829 -0.128125,0.0558 -0.264699,0.11518 -0.404354,0.11055 -0.422745,-0.014 -0.307597,0.43393 -0.726954,0.37871 -0.419357,-0.0552 -0.533118,-1.2114 -0.191684,-1.26042 0.341432,-0.049 1.727936,0.11287 1.666958,-0.24994 -0.06098,-0.3628 -0.293225,-0.76014 -0.478223,-1.07814 -0.195343,-0.33578 -0.913812,-0.43445 -1.135012,-0.75379 -0.437747,-0.63196 -1.111709,0.29333 -1.666282,0.21007 -0.224865,-0.0338 0.349233,-0.29819 0.481732,-0.48298 0.157908,-0.22023 0.365128,-0.44815 0.379921,-0.71873 0.0198,-0.36219 0.07604,-1.10092 -0.283189,-1.05069 -0.524358,0.0733 -1.004173,1.23068 -1.004173,1.23068 v 0 0 c 0,0 -0.714509,0.0966 -0.807617,-0.16163 -0.23419,-0.64962 0.444198,-1.24355 0.852869,-1.39003 0.22156,-0.0794 -0.228647,-0.39672 -1.002263,-0.40376 -0.599975,-0.005 0.314661,-0.34683 0,-0.34683 -0.314661,0 -0.927043,1.26521 -0.85562,1.58588 0.07142,0.32067 0.235999,0.63421 0.21427,0.96202 -0.01347,0.20319 -0.161052,0.38896 -0.31282,0.52473 -0.300119,0.26848 -0.674473,0.44011 -1.011709,0.66016 -0.337236,0.22005 -0.292712,-0.574 -0.514978,-0.73768 -0.222267,-0.16368 -1.093874,-0.37108 -0.596408,-0.54441 0.497465,-0.17333 0.51382,-0.20699 0.557947,-0.43962 0.04551,-0.2399 -0.487398,-0.40839 -0.369395,-0.63257 0.118002,-0.22418 0.412641,-0.91357 0.328995,-1.37851 -0.04099,-0.22787 0.308521,-0.42549 -0.386594,-0.57704 -0.695114,-0.15155 -1.192397,-0.33072 -1.463715,-0.79275 l -0.813955,-1.38609 c -0.271318,-0.46203 -0.735856,-1.21991 -0.948527,-1.46823 -0.212671,-0.24832 -1.074629,-0.87944 -1.438101,-1.45697 -0.08906,-0.14151 -0.05401,-0.13393 -0.16944,-0.47213 -0.115433,-0.3382 -0.257152,-1.27246 -0.637253,-1.58276 -0.380101,-0.3103 -0.774862,-0.60347 -1.140304,-0.93091 -0.213862,-0.19162 -0.433905,-0.3854 -0.594468,-0.62347 3.034728,-0.94679 5.311314,-2.3255 7.889497,-4.14488 -2.821693,-6.952914 -9.221844,-11.377155 -4.446658,-14.521891 5.657959,1.217963 5.320694,1.212519 6.739205,1.130309 0.189423,-0.01098 2.268992,5.969667 3.852044,6.347437 1.564504,0.373344 4.658037,-1.55665 7.560284,-3.056721 1.041473,-0.538302 1.914532,-1.549066 2.835089,-1.971768 0.39663,-0.182125 1.517713,0.140814 1.74129,0.0089 -0.01467,-0.614125 0.03496,-0.960142 0.1057,-1.365559 0.01389,-0.07962 0.0075,-0.212735 0.07886,-0.209533 1.21291,0.05441 4.811293,0.688178 5.741143,0.886712 0.25602,0.580903 0.0511,0.519691 0.39761,1.116433 0.34651,0.596742 1.38787,0.647977 1.94978,0.664251 0.5619,0.01627 0.51809,-0.152189 1.38008,-0.08515 0.86198,0.06704 1.78199,-0.384301 2.53454,-3.34e-4 0.36892,0.188232 0.55965,0.0725 0.72909,1.006112 0.16944,0.933615 -0.0379,0.17503 -0.30437,1.406418 -0.2665,1.2314 -0.0819,1.225259 -0.31712,1.930624 -0.23525,0.705366 -0.0956,0.751042 -0.57544,0.783715 -0.47985,0.03267 -1.35757,-0.02937 -2.03396,0.01747 -0.48028,0.03326 -1.70617,-0.0062 -1.43217,0.186782 0.27398,0.192956 1.49782,0.125764 2.24458,0.209597 0.15604,0.01752 0.26592,-0.23097 0.46706,0.06129 0.20113,0.292259 0.14595,-0.296805 0.26568,0.604717 0.11973,0.901521 0.0358,0.732537 0.10295,1.150949 0.0671,0.418404 0.17864,0.684962 -0.14862,0.856892 -0.32727,0.17193 -0.40142,0.05901 -0.7928,0.557771 -0.12897,0.164353 0.87246,0.06483 0.77147,0.284676 -0.20997,0.457091 -1.30206,1.157011 -1.01081,1.041211 l 2.06424,-0.820737 c 0.62968,-0.25036 0.67731,0.09151 1.17717,0.963057 0.49984,0.87152 0.61405,1.14212 1.30969,1.41041 0.69564,0.26829 1.79525,0.19264 2.05894,0.89266 0.13137,0.34874 -0.34546,0.3654 -0.34546,0.70381"
       id="path11284-9"
       sodipodi:nodetypes="csssccssssssssssssssssssssssssssssssssssscccsssscsscssssssssssssssssssssssc" />
  </g>
  <g
     inkscape:groupmode="layer"
     id="layer13-6"
     inkscape:label="cem"
     style="display:inline"
     transform="translate(-3.8656193,-22.02836)">
    <path
       style="display:inline;opacity:0.4;mix-blend-mode:normal;fill:#806600;fill-rule:evenodd;stroke:none;stroke-width:0.135916;stroke-linecap:butt;stroke-linejoin:miter;stroke-opacity:1;filter:url(#filter12864)"
       d="m 95.320637,89.676326 c -1.961484,-0.387597 -2.321217,0.30683 -3.5081,1.248153 -1.144887,0.701644 -2.16207,1.21126 -3.115528,1.80363 -4.579283,2.845044 -6.168409,3.90459 -9.36507,-4.379633 l 0.53615,-0.359789 1.2463,-0.916906 0.159058,-1.00787 -0.347481,-1.775106 -0.192116,-1.173737 1.170311,-0.374476 1.379753,-0.08885 1.008423,-0.461399 c 0,0 0.822484,-1.062866 0.898964,-1.171735 0.07649,-0.108869 0.338089,-1.197675 0.338089,-1.197675 l 0.769837,-1.932343 0.03826,-0.888532 c 0.717104,0.300541 1.861085,0.614176 2.157249,0.691017 0.382347,0.0992 0.501634,0.183066 1.554871,0.568513 1.053237,0.385447 1.592733,0.455633 1.927518,0.489112 0.334785,0.03348 1.491793,-0.441082 1.822231,-0.294638 0.330437,0.146444 0.637017,0.343375 1.499474,0.800827 0.862457,0.457452 1.872226,0.107752 2.096381,0.265597 0.224154,0.157845 0.471825,0.607806 0.418998,1.928206 -0.05283,1.3204 -0.09981,1.85879 0.102062,2.481434 0.20187,0.622645 0.267648,0.320915 0.18496,0.85568 -0.08269,0.534766 0.01801,0.445733 0.599633,1.027951 0.581622,0.582218 1.521406,0.850552 1.777426,1.431455 0.25602,0.580903 0.40617,0.921587 0.66218,1.50249 0.25602,0.580903 -6.060643,-1.033677 -5.714133,-0.436935 -0.186507,0.831061 -0.02717,1.17586 -0.1057,1.365559 z"
       id="path11284-9-1-2"
       sodipodi:nodetypes="ccscccccccccscccsssssssssssscc" />
  </g>
  <g
     inkscape:groupmode="layer"
     id="layer14"
     inkscape:label="kone"
     style="display:inline"
     transform="translate(-3.8656193,-22.02836)">
    <path
       style="font-variation-settings:normal;display:inline;opacity:0.4;mix-blend-mode:normal;vector-effect:none;fill:#d42aff;fill-opacity:1;fill-rule:evenodd;stroke:none;stroke-width:0.135916;stroke-linecap:butt;stroke-linejoin:miter;stroke-miterlimit:4;stroke-dasharray:none;stroke-dashoffset:0;stroke-opacity:1;-inkscape-stroke:none;filter:url(#filter12868);stop-color:#000000"
       d="m 79.331947,88.348474 0.536142,-0.359787 1.2463,-0.916906 0.159058,-1.00787 -0.347481,-1.775106 -0.192116,-1.173737 1.170311,-0.374476 1.379753,-0.08885 1.008423,-0.461399 c 0,0 0.822484,-1.062866 0.898964,-1.171735 0.07649,-0.108869 0.338089,-1.197675 0.338089,-1.197675 l 0.769837,-1.932343 -0.0031,-0.949802 -2.015724,-0.937826 c 0,0 -0.736018,0.692795 -0.813858,0.792375 -0.07783,0.09958 -0.265396,0.711323 -0.388977,0.854465 -0.123581,0.143142 -0.418674,1.400438 -0.428574,1.473958 -0.0099,0.07353 -0.10437,1.306308 -0.10437,1.306308 l -0.998825,0.879202 -3.880493,0.911674 -3.089185,0.295046 c -5.776244,2.139464 -11.192874,4.428909 -15.845181,7.672852 0.162733,0.146139 0.320467,0.276319 0.322267,0.297209 0.03285,0.381671 -0.405729,0.730468 -0.631284,1.065952 -0.118047,0.175579 -0.46711,0.224469 -0.46131,0.435961 0.0122,0.441346 0.50717,1.2236 0.50717,1.2236 v 0 c 0,0 0.770711,-0.03345 1.06957,-0.08176 0.29886,-0.04831 0.548233,0.368192 0.857581,0.471976 0.283508,0.09511 0.325902,0.162104 0.887795,0.128974 0.561893,-0.03313 1.216236,0.141611 0.797278,0.302812 -0.418958,0.161201 -0.818596,0.386523 -1.256873,0.483603 -0.220516,0.04884 -0.449736,-0.06732 -0.675294,-0.05563 -0.307189,0.01592 -0.784587,-0.141863 -0.91244,0.137908 -0.129768,0.283961 0.301276,0.54856 0.482574,0.802734 0.135622,0.190136 0.289061,0.370326 0.464288,0.524731 0.228821,0.201631 0.530247,0.31637 0.740719,0.537086 0.164847,0.17287 0.202117,0.440818 0.361478,0.618758 0.231752,0.25877 0.617279,0.375011 0.795548,0.673157 0.112449,0.188065 0,0.438237 0,0.657356 v 0.38529 0.658869 0.49472 c 0,0.223502 0.739439,0.190522 0.695249,-0.007 -0.04419,-0.197524 -0.04163,-0.41175 -0.132578,-0.592573 -0.145233,-0.288744 -0.549121,-0.466752 -0.562671,-0.789679 -0.0079,-0.18752 0.3329,-0.21991 0.520514,-0.21471 0.201344,0.0056 0.354695,0.282347 0.552547,0.244597 0.287454,-0.05485 0.437059,-0.508752 0.729039,-0.489122 0.234755,0.01578 0.257749,0.397157 0.421148,0.566449 0.09718,0.10068 0.274007,0.114528 0.349707,0.232209 0.09141,0.142108 0.0121,0.360735 0.116953,0.493238 0.135365,0.171061 0.333841,0.342651 0.551787,0.351851 0.220863,0.0093 0.441764,-0.139242 0.589618,-0.303579 0.175918,-0.195529 0.128191,-0.547211 0.328838,-0.717268 0.29327,-0.24856 0.67941,-0.523489 1.058292,-0.458389 0.210326,0.03614 0.07092,0.438943 0,0.640223 -0.07851,0.222844 -0.425338,0.330741 -0.425338,0.567012 0,0.174129 0.328918,0.158277 0.425338,0.303277 0.216684,0.325866 0.353348,0.700446 0.486718,1.068356 0.08568,0.23635 -0.01679,0.56411 0.167184,0.73545 0.151853,0.14142 0.415013,2.5e-4 0.622519,0 0.342603,0 0.716507,-0.14507 1.027807,-0.002 0.192544,0.0885 0.229614,0.37541 0.244604,0.58679 0.03071,0.43309 -0.04324,0.86893 -0.11095,1.29779 -0.05126,0.32467 -0.03617,0.70121 -0.244787,0.95522 -0.205346,0.25003 -0.80517,0.0975 -0.87858,0.41261 -0.08946,0.38402 0.316443,0.72714 0.536921,1.05404 0.160563,0.23807 0.380606,0.43185 0.594468,0.62347 3.034728,-0.94679 4.716846,-2.94897 7.295029,-4.76835 -2.821693,-6.952914 -9.221844,-11.377155 -4.446658,-14.521891 5.657959,1.217963 5.320694,1.212519 6.739205,1.130309"
       id="path12170-2"
       sodipodi:nodetypes="cccccccccsccccssccccccsssssssssssssssssssssssssssssssssssssssssssssscccc" />
  </g>
  <g
     inkscape:groupmode="layer"
     id="layer15"
     inkscape:label="pij"
     style="display:inline"
     transform="translate(-3.8656193,-22.02836)">
    <path
       style="font-variation-settings:normal;display:inline;opacity:0.4;mix-blend-mode:normal;vector-effect:none;fill:#d4ff2a;fill-opacity:1;fill-rule:evenodd;stroke:none;stroke-width:0.135916;stroke-linecap:butt;stroke-linejoin:miter;stroke-miterlimit:4;stroke-dasharray:none;stroke-dashoffset:0;stroke-opacity:1;-inkscape-stroke:none;filter:url(#filter12872);stop-color:#000000"
       d="m 75.492981,77.04413 c 0,0 3.045959,0.69073 3.182732,0.6521 0.136772,-0.03863 1.466553,-0.639099 1.504623,-0.722319 0.03807,-0.08322 2.288528,-1.467665 2.463135,-1.563425 l 1.285993,0.132037 0.49154,0.358721 c 0,0 -0.876619,0.792513 -0.954459,0.892093 -0.07783,0.09958 -0.265396,0.711323 -0.388977,0.854465 -0.123581,0.143142 -0.418674,1.400438 -0.428574,1.473958 -0.0099,0.07353 -0.10437,1.306308 -0.10437,1.306308 l -0.998825,0.879202 -3.880493,0.911674 -3.197432,0.310932 c 0,0 -1.607806,-2.153408 -1.652707,-2.227165 -0.0449,-0.07376 -1.889059,-2.212357 -1.889059,-2.212357 l 2.945035,-2.66096 z"
       id="path12024-2"
       sodipodi:nodetypes="csscccsscccccsccc" />
  </g>
  <g
     inkscape:groupmode="layer"
     id="layer16"
     inkscape:label="pam"
     style="display:inline"
     transform="translate(-3.8656193,-22.02836)">
    <path
       style="font-variation-settings:normal;opacity:0.4;mix-blend-mode:normal;vector-effect:none;fill:#5f5fd3;fill-opacity:1;fill-rule:evenodd;stroke:none;stroke-width:0.135916;stroke-linecap:butt;stroke-linejoin:miter;stroke-miterlimit:4;stroke-dasharray:none;stroke-dashoffset:0;stroke-opacity:1;-inkscape-stroke:none;filter:url(#filter12876);stop-color:#000000;stop-opacity:1"
       d="m 57.897019,89.802546 0.20657,0.371736 0.574896,-0.03791 c 4.704762,-3.193473 10.121392,-5.482918 15.681142,-7.59061 0,0 -1.499559,-2.169294 -1.54446,-2.243051 -0.0449,-0.07376 -1.889059,-2.212357 -1.889059,-2.212357 l -3.465568,3.033868 -3.688536,-0.406361 -1.136937,-0.703957 -0.656836,-1.712053 c -0.04634,0.08929 -2.54713,1.903309 -2.59799,1.990459 -0.321901,0.551602 -0.714537,1.069578 -0.925972,1.670134 -0.869284,2.469096 -1.335678,7.738526 -1.335678,7.738526 l -1e-6,-10e-7 z"
       id="path12093"
       sodipodi:nodetypes="ccccscccccssccc" />
  </g>
  <g
     inkscape:groupmode="layer"
     id="layer17"
     inkscape:label="pap"
     style="display:inline"
     transform="translate(-3.8656193,-22.02836)">
    <path
       style="display:inline;opacity:0.4;fill:#5fd38d;fill-rule:evenodd;stroke:none;stroke-width:0.135916;stroke-linecap:butt;stroke-linejoin:miter;stroke-opacity:1;filter:url(#filter12880)"
       d="m 57.118591,89.70097 c 0,0 0.466394,-5.26943 1.335678,-7.738526 0.211435,-0.600556 0.604071,-1.118532 0.925972,-1.670134 0.05086,-0.08715 2.55165,-1.901168 2.59799,-1.990458 l -1.428176,-0.693128 c 0,0 -1.629635,-0.358094 -1.679919,-0.36548 -0.05028,-0.0074 -1.362938,-0.36997 -1.362938,-0.36997 0,0 -0.690839,-0.219925 -0.774435,-0.246743 -0.08359,-0.02682 -1.038936,-0.547662 -1.080538,-0.574386 -0.0416,-0.02672 -1.667877,-1.273881 -1.702932,-1.2781 -0.03505,-0.0042 -1.28274,-0.774641 -1.28274,-0.774641 L 51.331764,73.39872 c 0,0 -0.0045,0.0074 -0.01295,0.02121 -0.08139,0.133509 -0.52565,0.864729 -0.735335,1.261288 -0.417286,0.789179 -0.675684,1.662664 -1.151886,2.417755 -0.631523,1.001377 -1.576685,1.776252 -2.235176,2.760105 -0.410915,0.613949 -0.790136,1.258599 -1.060509,1.946118 -0.17024,0.432895 -0.345817,1.351972 -0.345817,1.351972 -6.7e-4,0.06435 -0.214825,0.02084 -0.178275,0.07375 0.17075,0.247165 0.398655,0.463026 0.656078,0.61788 0.379862,0.228508 0.797021,0.404035 1.226334,0.514493 0.445079,0.114515 0.946406,-0.02436 1.370147,0.153555 0.185981,0.07809 0.183891,0.359066 0.276981,0.538007 0.194983,0.374805 0.391488,0.748815 0.587232,1.123223 0.195744,0.374407 0.963615,0.461027 1.198662,0.461027 0.235047,0 1.424608,0.06007 1.69909,0.322841 0.274482,0.262771 0.638146,0.45657 0.823446,0.788312 0.06461,0.115676 -0.2366,0.227633 -0.18728,0.350612 0.09082,0.22648 0.321874,0.377727 0.530262,0.504678 0.42484,0.258815 0.852182,0.603444 1.348322,0.639764 0.249866,0.01829 0.358521,-0.352692 0.561198,-0.499966 0.196253,-0.142605 0.409551,-0.467595 0.629494,-0.36524 0.251714,0.117141 0.07299,0.595788 0.275054,0.786189 0.0093,0.805851 0.301757,0.509774 0.511753,0.534674 z"
       id="path11284-8-84"
       sodipodi:nodetypes="cssccscsssccssaaacsssssssssssssscc" />
  </g>
  <g
     inkscape:groupmode="layer"
     id="layer18"
     inkscape:label="jaw"
     style="display:inline"
     transform="translate(-3.8656193,-22.02836)">
    <path
       style="display:inline;opacity:0.4;mix-blend-mode:normal;fill:#7137c8;fill-rule:evenodd;stroke:none;stroke-width:0.135916;stroke-linecap:butt;stroke-linejoin:miter;stroke-opacity:1;filter:url(#filter12884)"
       d="m 51.773605,73.426643 0.892212,-1.407001 1.199738,-2.772976 0.204712,-0.527655 1.644714,-0.700626 0.445389,-1.859924 0.872467,-1.636551 2.111847,-1.720679 c 0,0 1.304092,-1.12039 1.466034,-1.21349 0.161941,-0.09311 1.161697,-1.598775 1.161697,-1.598775 l -0.08713,-0.566916 -4.013916,-1.661396 -1.632022,-0.740761 h 10e-7 l -0.442134,-1.436794 0.772807,-1.776953 c 0.584054,0.388545 1.069399,0.572601 1.524217,0.818015 0.449713,0.242659 0.864877,0.544507 1.297316,0.81676 0.432439,0.272253 0.78028,0.36313 1.108621,0.67618 0.32834,0.313049 1.779847,0.974855 1.779847,1.18068 0,0.205826 0.315288,0.175834 0.684972,0.413185 0.369685,0.237351 1.10913,0.353138 1.61981,0.625571 0.397959,0.212299 0.81351,0.433548 1.107873,0.776914 0.294364,0.343366 0.838029,1.051674 1.321908,1.435699 0.48388,0.384025 0.600681,0.984588 0.936677,1.588415 0.335995,0.603828 0.634076,1.084881 0.634076,1.413526 l -2.837559,3.99814 -2.386661,-0.205292 -1.364956,0.476855 -0.679703,0.588707 -0.32671,1.019467 0.627535,1.482523 c 0,0 0.998035,1.003776 1.002937,1.049133 0.0049,0.04536 1.144162,1.503027 1.144162,1.503027 l -0.96999,1.069129 0.799221,1.108389 1.207889,0.720222 -0.371786,1.053654 c 0,0 -1.625902,0.60543 -1.644487,0.637772 -0.01859,0.03234 -0.606999,0.249035 -0.606999,0.249035 l -1.428176,-0.693128 c 0,0 -1.629635,-0.358094 -1.679919,-0.36548 -0.05028,-0.0074 -1.362938,-0.36997 -1.362938,-0.36997 0,0 -0.690839,-0.219925 -0.774435,-0.246743 -0.08359,-0.02682 -1.038936,-0.547662 -1.080538,-0.574386 -0.0416,-0.02672 -1.667877,-1.273881 -1.702932,-1.2781 -0.03505,-0.0042 -1.28274,-0.774641 -1.28274,-0.774641 l -0.892948,-0.572761"
       id="path11284-4-5"
       sodipodi:nodetypes="ccccccccscccccccssssssssscccccccscccccsccscssscc" />
  </g>
  <g
     inkscape:groupmode="layer"
     id="layer19"
     inkscape:label="nmi"
     style="display:inline"
     transform="translate(-3.8656193,-22.02836)">
    <path
       style="font-variation-settings:normal;display:inline;opacity:0.4;vector-effect:none;fill:#d4ff2a;fill-opacity:1;fill-rule:evenodd;stroke:none;stroke-width:0.135916;stroke-linecap:butt;stroke-linejoin:miter;stroke-miterlimit:4;stroke-dasharray:none;stroke-dashoffset:0;stroke-opacity:1;-inkscape-stroke:none;filter:url(#filter12888);stop-color:#000000"
       d="m 70.926108,78.090354 2.945035,-2.66096"
       id="path12024-2-4"
       sodipodi:nodetypes="cc" />
    <path
       style="font-variation-settings:normal;display:inline;opacity:0.4;vector-effect:none;fill:#ac9d93;fill-opacity:1;fill-rule:evenodd;stroke:none;stroke-width:0.135916;stroke-linecap:butt;stroke-linejoin:miter;stroke-miterlimit:4;stroke-dasharray:none;stroke-dashoffset:0;stroke-opacity:1;-inkscape-stroke:none;filter:url(#filter12892);stop-color:#000000"
       d="m 73.871143,75.429394 c 0,0 -3.170543,-3.018854 -3.255176,-3.084454 -0.08463,-0.0656 -0.972218,-1.238361 -0.972218,-1.238361 0,0 0.813454,-1.347101 0.880081,-1.416878 0.06663,-0.06978 1.574169,-1.00497 1.574169,-1.00497 L 72.52811,68.502272 C 71.695121,68.17438 71.974723,67.99716 71.823321,67.628174 71.671918,67.259187 71.169288,66.673388 70.81709,66.155643 70.464893,65.637899 70.046131,65.419912 69.551837,64.908827 69.057544,64.397742 68.385338,63.879736 68.385338,63.551091 l -2.837559,3.99814 -2.386661,-0.205292 -1.364956,0.476855 -0.679703,0.588707 -0.32671,1.019467 0.627535,1.482523 c 0,0 0.998037,1.003773 1.002937,1.049133 0.0049,0.04536 1.144162,1.503027 1.144162,1.503027 l -0.96999,1.069129 0.799221,1.108389 1.207889,0.720222 -0.371786,1.053654 c 0,0 -1.625907,0.605432 -1.644487,0.637772 -0.01859,0.03234 -0.606999,0.249035 -0.606999,0.249035 l 0.656836,1.712052 1.136937,0.703957 3.688536,0.406361 3.465568,-3.033868"
       id="path12024-6"
       sodipodi:nodetypes="cscsccssscccccccscccccsccccc" />
  </g>
  <g
     inkscape:groupmode="layer"
     id="layer20"
     inkscape:label="fwa"
     style="display:inline"
     transform="translate(-3.8656193,-22.02836)">
    <path
       style="font-variation-settings:normal;opacity:0.4;mix-blend-mode:normal;vector-effect:none;fill:#55ff55;fill-opacity:1;fill-rule:evenodd;stroke:none;stroke-width:0.135916;stroke-linecap:butt;stroke-linejoin:miter;stroke-miterlimit:4;stroke-dasharray:none;stroke-dashoffset:0;stroke-opacity:1;-inkscape-stroke:none;filter:url(#filter12896);stop-color:#000000;stop-opacity:1"
       d="m 82.643471,75.410486 c -0.174607,0.09576 -2.425064,1.4802 -2.463135,1.563425 -0.03807,0.08322 -1.367851,0.683687 -1.504623,0.722319 -0.136773,0.03863 -3.182732,-0.6521 -3.182732,-0.6521 l -1.621838,-1.614736 c 0,0 -3.170543,-3.018854 -3.255176,-3.084454 -0.08463,-0.0656 -0.972218,-1.238361 -0.972218,-1.238361 0,0 0.813454,-1.347101 0.880081,-1.416878 0.06663,-0.06978 1.574169,-1.00497 1.574169,-1.00497 l 0.430111,-0.182459 c 0.329348,0.294218 0.677856,0.536766 1.040075,0.679347 0.832989,0.327892 1.744801,0.501373 2.498967,0.983677 0.580694,0.371365 0.938477,1.009816 1.407716,1.514724 0.469239,0.504908 -0.02441,0.714478 0.3528,0.974726 0.377209,0.260249 1.816291,-0.395203 2.714234,0.323618 0.897943,0.718821 1.20246,1.044149 1.839639,1.520504 0.498411,0.372612 0.970077,0.593157 1.547923,1.043655 z"
       id="path12024"
       sodipodi:nodetypes="cssccscsccsssssscc" />
  </g>
  <g
     inkscape:groupmode="layer"
     id="layer21"
     inkscape:label="yua"
     style="display:inline"
     transform="translate(-3.8656193,-22.02836)">
    <path
       style="display:inline;opacity:0.4;mix-blend-mode:normal;fill:#d4ff2a;fill-rule:evenodd;stroke:none;stroke-width:0.135916;stroke-linecap:butt;stroke-linejoin:miter;stroke-opacity:1;filter:url(#filter12900)"
       d="m 56.039349,57.019893 c -1.764097,0.08732 -3.562807,0.02996 -4.037617,-1.340022 0.28028,-1.914659 -0.68986,-4.203088 -1.394211,-6.334613 -1.884437,0.430645 -4.784828,0.73134 -7.927384,0.663734 -2.811503,-0.04559 -6.701768,0.461845 -10.193216,0.446775 -0.0333,-1.43e-4 -0.34951,-3.35e-4 -0.38273,-5.74e-4 l -0.169781,1.469808 c 0,0 1.693871,1.725998 1.974297,1.977125 0.280426,0.251128 1.003937,1.636969 1.044517,1.810738 0.04058,0.173769 0.349968,2.191036 0.349968,2.191036 l 3.95755,1.857403 3.065262,4.97315 -4.31569,4.820489 c 0.264728,0.228849 0.319419,0.579407 0.738042,1.109035 0.229547,0.290415 0.204098,0.737837 0.448322,1.016023 0.227731,0.2594 0.754796,0.202437 0.897365,0.516759 0.233658,0.515212 0.07015,1.129265 0.105225,1.693897 0.03508,0.564627 1.096797,0.456327 1.512347,0.523827 0.415551,0.0675 2.258589,0.39348 2.0599,0.716805 -0.198689,0.323325 -0.401673,0.64405 -0.596067,0.969976 -0.148134,0.248366 -0.238422,0.929701 -0.431399,1.145082 -0.117366,0.130992 -0.289656,0.249255 -0.465533,0.248359 -0.52991,-0.0027 -1.060882,-0.410634 -1.568556,-0.258718 -0.236338,0.07072 -0.09964,0.108173 -0.03697,0.346773 0.08253,0.314218 0.170248,0.708407 0.457196,0.86074 0.499409,0.265115 1.193499,-0.02632 1.674486,0.270915 0.46131,0.285079 0.563396,0.934621 0.927134,1.336829 0.235034,0.259893 0.622146,0.354367 0.846058,0.623902 0.415917,0.500662 0.757734,1.065661 1.043379,1.650517 0.12412,0.254135 0.17175,0.548697 0.16885,0.831508 -6.7e-4,0.06435 0.47607,-0.80104 0.51928,-0.81763 l 1.446105,-3.292906 1.131195,-1.73737 1.670123,-2.564978 1.216809,-1.317644 0.892212,-1.407001 1.199738,-2.772976 0.204712,-0.527655 1.644714,-0.700626 0.445389,-1.859924 0.872467,-1.636551 2.111847,-1.720679 c 0,0 1.304092,-1.12039 1.466034,-1.21349 0.161941,-0.09311 1.161697,-1.598775 1.161697,-1.598775 l -0.08713,-0.566916 -4.013916,-1.661396 -1.632022,-0.740761 v 0"
       id="path11284-4"
       sodipodi:nodetypes="cccccccssccccsssssssssssssssssccccccccccccsccccc" />
  </g>
  <g
     inkscape:groupmode="layer"
     id="layer22"
     inkscape:label="cac"
     style="display:inline"
     transform="translate(-3.8656193,-22.02836)">
    <path
       style="display:inline;opacity:0.4;mix-blend-mode:normal;fill:#37c837;fill-rule:evenodd;stroke:none;stroke-width:0.135916;stroke-linecap:butt;stroke-linejoin:miter;stroke-opacity:1;filter:url(#filter12904)"
       d="m 55.117215,51.842756 c 0.07383,-0.301019 0.169571,-1.047574 -0.222568,-1.456617 -0.333294,-0.347661 -1.053362,-0.801312 -1.402056,-1.080028 -0.06156,-0.04921 -0.31315,-0.410297 -0.34739,-0.447057 -0.844136,0.07403 -1.670853,0.259268 -2.501442,0.419581 0.668113,2.198148 1.638253,4.486577 1.357973,6.401236 0.47481,1.36998 2.27352,1.427341 4.037617,1.340022 l -0.442135,-1.436794 0.658836,-1.950763 c -0.470082,-0.214735 -1.212665,-1.488561 -1.138835,-1.78958 z"
       id="path11284"
       sodipodi:nodetypes="sssccccccs" />
  </g>
  <g
     inkscape:groupmode="layer"
     id="layer23"
     inkscape:label="kum"
     style="display:inline"
     transform="translate(-3.8656193,-22.02836)">
    <path
       style="display:inline;opacity:0.4;mix-blend-mode:normal;fill:#ff6600;fill-rule:evenodd;stroke:none;stroke-width:0.135916;stroke-linecap:butt;stroke-linejoin:miter;stroke-opacity:1;filter:url(#filter12908)"
       d="m 37.811106,69.293368 c -0.237509,-0.251069 -0.523811,-0.491489 -0.637083,-0.81801 -0.111253,-0.320703 0.100873,-0.694226 3.9e-5,-1.018355 -0.109604,-0.35232 -0.459405,-0.587887 -0.605177,-0.926846 -0.206293,-0.479688 -0.584889,-1.176087 -0.965034,-1.53406 -0.270408,-0.254634 -0.765604,0.170505 -1.113549,0.04053 -0.265926,-0.09934 -0.322608,-0.476075 -0.540264,-0.658312 -0.283743,-0.23757 -0.673734,-0.331533 -0.943952,-0.58438 -0.304148,-0.284595 -0.499537,-0.666681 -0.749305,-1.000021 -0.249768,-0.33334 -0.744717,-0.761311 -1.03482,-0.938114 -0.290103,-0.176803 -1.09618,-0.796428 -1.299099,-1.027686 -0.202918,-0.231257 -0.839883,-0.65485 -1.156007,-1.075708 -0.19741,-0.262813 -0.444035,-0.684677 -0.444035,-0.880456 0,-0.19578 -0.26525,-0.612844 -0.117636,-0.938402 0.147615,-0.325558 0.03052,-1.067176 -0.05403,-1.31438 -0.08455,-0.247204 -0.323289,-1.100785 -0.48901,-1.425399 -0.165721,-0.324614 -0.200648,-0.761908 -0.497164,-0.973841 -0.343403,-0.245444 -0.860073,-0.0783 -1.237974,-0.266336 -0.206624,-0.102815 -0.325469,-0.342018 -0.413427,-0.555391 -0.131015,-0.317824 -0.172099,-0.666478 -0.229949,-1.005344 -0.06943,-0.406678 -0.46033,-0.954964 -0.151389,-1.228392 0.265501,-0.234982 0.599969,0.377992 0.901494,0.564513 0.267229,0.165306 0.509063,0.384588 0.80474,0.490951 0.260137,0.09358 0.578524,0.222236 0.823918,0.09492 0.302837,-0.157119 0.366856,-0.579387 0.596382,-0.831804 0.185178,-0.203646 0.630981,-0.249821 0.637372,-0.524997 l 3.216015,-0.78076 -0.177752,1.747711 c 0,0 1.693871,1.725998 1.974297,1.977125 0.280426,0.251128 1.003937,1.636969 1.044517,1.810738 0.04058,0.173769 0.349968,2.191036 0.349968,2.191036 l 3.95755,1.857403 3.065262,4.97315 -4.116481,5.082063"
       id="path11284-1"
       sodipodi:nodetypes="csssssssssssssssssssssssscccsscccc" />
  </g>
  <g
     inkscape:groupmode="layer"
     id="layer24"
     inkscape:label="yal"
     style="display:inline"
     transform="translate(-3.8656193,-22.02836)">
    <path
       style="display:inline;opacity:0.4;fill:#225500;fill-rule:evenodd;stroke:none;stroke-width:0.135916;stroke-linecap:butt;stroke-linejoin:miter;stroke-opacity:1;filter:url(#filter12912)"
       d="m 32.486921,50.455767 c 3.491448,0.01507 7.381713,-0.492369 10.193216,-0.446775 5.372524,0.115579 10.037263,-0.84529 9.946723,-1.358741 -0.228166,-0.244945 -0.284859,-0.08481 -1.140513,-0.973306 -0.855653,-0.888503 -0.447575,-0.383146 -1.085405,-0.841303 -0.637831,-0.458156 -0.903513,-0.267202 -1.594721,-0.577767 -0.691208,-0.310565 -1.751104,-0.709151 -2.460048,-1.18521 -0.708944,-0.476059 -0.722367,-0.421351 -1.418438,-1.002917 -0.696071,-0.581563 -1.070947,-0.369576 -1.460294,-0.483433 -0.389346,-0.113856 -1.373581,-0.499303 -1.657549,-0.912106 -0.283968,-0.412803 -0.877252,-1.072877 -1.45623,-0.983767 -0.384377,0.05916 -0.227759,0.70965 -0.725644,0.913591 -0.497885,0.203941 -0.166496,-0.164736 -0.265446,-0.225426 -0.582804,-0.357467 -1.647206,-0.681003 -1.892111,-0.79177 -0.2449,-0.110766 -0.20246,0.150945 -0.1508,0.727532 0.05166,0.576587 0.103308,1.153175 0.154968,1.729762 0.05166,0.576587 0.4403,1.316238 0.62269,1.623562 0.182391,0.307325 0.74161,0.818793 1.107913,1.218656 0.366302,0.399863 0.03828,0.566942 -0.167683,0.669278 -0.290205,0.14419 -0.44612,-0.08403 -0.894258,-0.381302 -0.448139,-0.297273 -1.273328,-0.505553 -1.743082,-1.069524 -0.469754,-0.563971 -0.08338,-0.555432 -0.290142,-0.701112 -0.381618,-0.268886 -1.19591,-0.10241 -1.398802,-0.06885 -0.202893,0.03356 -0.507716,0.410389 -0.69113,0.151238 -0.183413,-0.25915 -1.503996,-0.77079 -1.192317,-0.884187 l 0.935038,-0.34019 c 0.311679,-0.113397 -0.770934,-0.525472 -1.033653,-0.671667 -0.26272,-0.146195 -0.558079,-0.13638 -0.983251,-0.36957 -0.425173,-0.233189 -0.683854,-0.232129 -0.96178,-0.372358 -0.277925,-0.140229 -0.943912,-0.144381 -1.220369,-0.447232 -0.276457,-0.302851 -1.059425,-0.823484 -1.235379,-1.068078 -0.175955,-0.244593 -0.47142,-0.45596 -0.5693,-0.676471 -0.09788,-0.22051 -0.92931,-0.963957 -1.214235,-1.53069 -0.284925,-0.566734 -0.902507,-1.395038 -1.163872,-1.715317 -0.261365,-0.320279 -0.458496,-0.70613 -0.784095,-0.960837 l -0.35111,-0.184184 c 0.10863,3.264352 0.01373,2.299924 0.221992,5.296517 0.277926,0.140229 5.296026,4.315942 5.689121,4.694789 0.281021,0.270835 0.982152,0.969522 1.389058,1.809808 0.459653,0.949209 0.624035,2.214675 0.558208,2.388783 0.03322,2.39e-4 0.349435,4.31e-4 0.38273,5.74e-4 z"
       id="path11284-2"
       sodipodi:nodetypes="sccssssssssssssssssssssssssssssssscccsscs" />
  </g>
  <g
     inkscape:groupmode="layer"
     id="layer25"
     inkscape:label="nel"
     style="display:inline"
     transform="translate(-3.8656193,-22.02836)">
    <path
       style="opacity:0.4;mix-blend-mode:normal;fill:#800080;fill-rule:evenodd;stroke:none;stroke-width:0.135916;stroke-linecap:butt;stroke-linejoin:miter;stroke-opacity:1;filter:url(#filter12916)"
       d="m 28.291965,50.054087 c -0.02625,-0.376067 0.459995,-0.652125 0.469269,-1.028993 0.0098,-0.396361 -0.209675,-0.775885 -0.416533,-1.114126 -0.181761,-0.297204 -0.470627,-0.514759 -0.725133,-0.752655 -0.309928,-0.289701 -0.654616,-0.540504 -0.966263,-0.828354 -0.172528,-0.159354 -0.27262,-0.410193 -0.484462,-0.511596 -0.268196,-0.128378 -0.584403,-0.116562 -0.880664,-0.141852 -0.259421,-0.02214 -0.525055,-0.04727 -0.781093,0 -0.187779,0.03467 -0.331968,0.207302 -0.520064,0.240203 -0.278082,0.04864 -0.564607,-7.33e-4 -0.84691,-0.0011 -0.282303,-3.67e-4 -0.263047,-0.400843 -0.246268,-0.695703 0.01678,-0.294859 0.08033,-0.684301 -0.05488,-0.909667 -0.135214,-0.225366 -0.172762,-0.554279 -0.405641,-0.676099 -0.169403,-0.08861 -0.435004,0.02244 -0.544944,0.178845 -0.118493,0.168575 0.08338,0.437004 -0.01515,0.617975 -0.18435,0.338605 -0.448926,0.659797 -0.784173,0.850184 -0.314823,0.178787 -0.705895,0.180205 -1.067328,0.201282 -0.22828,0.01331 -0.57691,0.105275 -0.678756,-0.09946 -0.101152,-0.20334 0.222547,-0.395964 0.33382,-0.593946 0.111273,-0.197982 -0.1527,-0.731183 -0.53122,-0.746976 -0.378519,-0.01579 -0.95096,-0.468647 -1.04722,-0.669456 -0.09626,-0.200809 -0.251315,-0.382912 -0.288779,-0.602426 -0.06048,-0.354372 -0.197671,-0.779473 0.0019,-1.078486 0.219977,-0.329587 0.675304,-0.465552 1.067302,-0.523474 0.295796,-0.04371 0.570874,0.18352 0.864882,0.237974 0.341676,0.06328 0.714096,0.244508 1.036196,0.114128 0.473189,-0.191537 0.771956,-0.668177 1.157934,-1.002266 0.385978,-0.334089 -0.895844,-0.876491 -0.912963,-1.242482 -0.01712,-0.365991 -0.19956,-0.748023 0.01901,-1.124069 l 0.65571,-1.128138 c 0.21857,-0.376046 -0.444861,-1.176848 -0.640072,-1.587007 -0.195211,-0.410158 -0.737484,-1.153846 -1.340285,-1.243509 -0.110224,-0.0164 -0.283733,-0.144891 -0.300643,0.146207 -0.01691,0.291097 -0.199645,0.861608 -0.366236,0.666482 -0.166591,-0.195126 -0.392878,-0.35214 -0.499773,-0.585379 -0.06716,-0.14654 -0.03317,-0.328153 0.0099,-0.48349 0.0541,-0.195141 0.273672,-0.339492 0.274426,-0.541993 8.03e-4,-0.215692 -0.180145,-0.391972 -0.270218,-0.587958 -0.09007,-0.195986 0.123678,0.237538 -0.265577,-0.03781 -0.389255,-0.275353 -0.850344,-0.663817 -0.811058,-1.100485 0.03929,-0.436668 0.07177,-0.874 0.117858,-1.310003 0.03828,-0.362197 0.263122,-0.743236 0.1352,-1.084247 -0.206211,-0.549711 -0.711657,-0.934005 -1.067486,-1.401008 -0.355829,-0.467003 -0.503888,-0.623464 -0.520798,-0.908616 -0.01691,-0.285152 -0.02132,-0.784269 -0.133365,-0.949826 -0.112042,-0.165557 -0.138413,-0.526197 -0.336127,-0.49667 -0.967832,0.06357 -0.81131,0.501426 -1.051687,1.494404 -0.271372,0.230014 -1.236408,0.08306 -0.0015,0.865563 0.351413,0.222679 -0.19061,0.763646 -0.208398,1.179292 -0.01321,0.308567 0.171743,0.624804 0.395141,0.838068 0.231979,0.221455 0.299391,0.279317 0.611102,0.354769 0.136388,0.03301 0.331038,0.04428 0.415486,-0.06779 0.283077,-0.375675 0.633887,-0.159973 0.629467,0.476202 -0.0019,0.27571 0.59838,0.135079 0.891846,-0.294668 0.183251,-0.268351 0.518714,0.500069 0.880022,0.419406 0.361308,-0.08066 0.86711,-0.393377 1.048662,-0.114691 l 0.544656,0.836058 c 0.181552,0.278686 0.724805,-0.277989 0.724805,0.111815 0,0.389805 -0.105649,0.620181 0.08909,0.809132 0.132158,0.12823 0.432513,-0.424092 0.550685,0.04387 0.118173,0.467958 0.109762,0.528236 0.30392,0.502748 0.152075,-0.01996 -0.101263,-0.935797 0.128344,-0.441877 0.229608,0.493919 0.695136,0.790364 0.89064,1.268633 0.128348,0.313983 0.150315,0.719802 0.166137,1.003956 0.01582,0.284153 0.678694,1.151925 0.984824,1.275581 0.841397,0.163876 0.115869,-0.426446 0.56728,0.186783 0.10863,3.264352 0.01373,2.299924 0.221992,5.296517 0.277926,0.140229 5.296026,4.315942 5.689121,4.694789 0.281021,0.270835 0.982152,0.969522 1.389058,1.809808 0.459653,0.949209 0.632006,1.93677 0.566179,2.110878 -0.434494,-0.01946 -2.116843,0.503828 -3.216015,0.78076 -0.203069,0.05116 -0.599771,-0.840767 -0.604182,-0.903961 z"
       id="path11284-6"
       sodipodi:nodetypes="cssssssssssssssssssssssssssssssssssssssssssssccssssssssssssssssscccsscsc" />
  </g>
  <g
     inkscape:groupmode="layer"
     id="layer26"
     inkscape:label="coastline"
     style="display:inline"
     transform="translate(-3.8656193,-22.02836)">
    <path
       style="display:inline;opacity:0.4;fill:none;fill-rule:evenodd;stroke:#000000;stroke-width:0.445708;stroke-linecap:butt;stroke-linejoin:miter;stroke-opacity:1"
       d="m 105.11761,136.89413 c -0.69184,-0.30957 -1.37376,-0.64235 -2.07553,-0.92872 -0.96522,-0.39387 -1.94895,-0.74079 -2.92343,-1.11118 -0.974477,-0.37039 -1.013702,-0.38079 -1.5509,-0.66604 -0.537199,-0.28524 -0.912522,-0.43163 -1.177951,-0.8548 -0.265429,-0.42317 -0.753796,-0.7718 -0.796287,-1.26951 -0.02882,-0.33764 0.412709,-0.53758 0.619063,-0.80637 0.206354,-0.26879 0.42393,-0.14527 -0.09087,-0.44975 -0.514804,-0.30449 -0.501463,-0.56342 -0.845673,-0.66112 -0.252826,-0.0718 -0.44688,-0.20975 -0.783644,0.0868 -0.336764,0.29659 -0.68754,0.89178 -0.478543,0.20174 0.33631,-1.11039 -0.820327,-0.99759 -1.301153,-1.03531 -0.352749,-0.0277 -0.527374,-1.19558 -1.027089,-1.11711 -1.167302,0.18331 -1.825712,-0.42642 -2.127443,-0.73596 -0.31314,-0.32124 -0.732101,-0.92397 -1.179649,-1.44123 -0.447548,-0.51726 -0.05185,-1.52418 -0.627276,-1.95216 -0.575424,-0.42797 -0.833596,-0.99118 -0.971787,-1.59956 -0.128208,-0.56442 0.517452,-1.55057 0.172012,-1.72786 -0.345439,-0.1773 -0.55718,-0.94917 -1.034648,-0.66294 -0.477468,0.28623 -1.369808,1.65429 -1.597074,1.35844 -0.227266,-0.29585 -0.317688,-0.8063 -0.681799,-0.88756 -0.370089,-0.0826 -0.67001,0.35698 -1.017707,0.50829 -0.128125,0.0558 -0.264699,0.11518 -0.404354,0.11055 -0.422745,-0.014 -0.307597,0.43393 -0.726954,0.37871 -0.419357,-0.0552 -0.533118,-1.2114 -0.191684,-1.26042 0.341432,-0.049 1.727936,0.11287 1.666958,-0.24994 -0.06098,-0.3628 -0.293225,-0.76014 -0.478223,-1.07814 -0.195343,-0.33578 -0.913812,-0.43445 -1.135012,-0.75379 -0.437747,-0.63196 -1.111709,0.29333 -1.666282,0.21007 -0.224865,-0.0338 0.349233,-0.29819 0.481732,-0.48298 0.157908,-0.22023 0.365128,-0.44815 0.379921,-0.71873 0.0198,-0.36219 0.07604,-1.10092 -0.283189,-1.05069 -0.524358,0.0733 -1.004173,1.23068 -1.004173,1.23068 v 0 0 c 0,0 -0.714509,0.0966 -0.807617,-0.16163 -0.23419,-0.64962 0.444198,-1.24355 0.852869,-1.39003 0.22156,-0.0794 -0.228647,-0.39672 -1.002263,-0.40376 -0.599975,-0.005 0.314661,-0.34683 0,-0.34683 -0.314661,0 -0.927043,1.26521 -0.85562,1.58588 0.07142,0.32067 0.235999,0.63421 0.21427,0.96202 -0.01347,0.20319 -0.161052,0.38896 -0.31282,0.52473 -0.300119,0.26848 -0.674473,0.44011 -1.011709,0.66016 -0.337236,0.22005 -0.292712,-0.574 -0.514978,-0.73768 -0.222267,-0.16368 -1.093874,-0.37108 -0.596408,-0.54441 0.497465,-0.17333 0.51382,-0.20699 0.557947,-0.43962 0.04551,-0.2399 -0.487398,-0.40839 -0.369395,-0.63257 0.118002,-0.22418 0.412641,-0.91357 0.328995,-1.37851 -0.04099,-0.22787 0.308521,-0.42549 -0.386594,-0.57704 -0.695114,-0.15155 -1.192397,-0.33072 -1.463715,-0.79275 l -0.813955,-1.38609 c -0.271318,-0.46203 -0.735856,-1.21991 -0.948527,-1.46823 -0.212671,-0.24832 -1.074629,-0.87944 -1.438101,-1.45697 -0.08906,-0.14151 -0.05401,-0.13393 -0.16944,-0.47213 -0.115433,-0.3382 -0.257152,-1.27246 -0.637253,-1.58276 -0.380101,-0.3103 -0.774862,-0.60347 -1.140304,-0.93091 -0.213862,-0.19162 -0.433905,-0.3854 -0.594468,-0.62347 -0.220478,-0.3269 -0.62638,-0.67002 -0.536921,-1.05404 0.07341,-0.31511 0.673234,-0.16258 0.87858,-0.41261 0.208613,-0.25401 0.193523,-0.63055 0.244787,-0.95522 0.06771,-0.42886 0.141664,-0.8647 0.11095,-1.29779 -0.01499,-0.21138 -0.05206,-0.4983 -0.244604,-0.58679 -0.3113,-0.14307 -0.685204,0.002 -1.027807,0.002 -0.207506,2.5e-4 -0.470666,0.14142 -0.622519,0 -0.183977,-0.17134 -0.0815,-0.4991 -0.167184,-0.73545 -0.13337,-0.36791 -0.270034,-0.74249 -0.486718,-1.068356 -0.09642,-0.145 -0.425338,-0.129148 -0.425338,-0.303277 0,-0.236271 0.346825,-0.344168 0.425338,-0.567012 0.07092,-0.20128 0.210326,-0.604085 0,-0.640223 -0.378882,-0.0651 -0.765022,0.209829 -1.058292,0.458389 -0.200647,0.170057 -0.15292,0.521739 -0.328838,0.717268 -0.147854,0.164337 -0.368755,0.31292 -0.589618,0.303579 -0.217946,-0.0092 -0.416422,-0.18079 -0.551787,-0.351851 -0.104853,-0.132503 -0.02554,-0.35113 -0.116953,-0.493238 -0.0757,-0.117681 -0.252532,-0.131529 -0.349707,-0.232209 -0.163399,-0.169292 -0.186393,-0.550666 -0.421148,-0.566449 -0.29198,-0.01963 -0.441585,0.434276 -0.729039,0.489122 -0.197852,0.03775 -0.351203,-0.238989 -0.552547,-0.244597 -0.187614,-0.0052 -0.528385,0.02719 -0.520514,0.21471 0.01355,0.322927 0.417438,0.500935 0.562671,0.789679 0.09095,0.180823 0.08839,0.395049 0.132578,0.592573 0.04419,0.197522 -0.695249,0.230502 -0.695249,0.007 v -0.49472 -0.658869 -0.38529 c 0,-0.219119 0.112449,-0.469291 0,-0.657356 -0.178269,-0.298146 -0.563796,-0.414387 -0.795548,-0.673157 -0.159361,-0.17794 -0.196631,-0.445888 -0.361478,-0.618758 -0.210472,-0.220716 -0.511898,-0.335455 -0.740719,-0.537086 -0.175227,-0.154405 -0.328666,-0.334595 -0.464288,-0.524731 -0.181298,-0.254174 -0.612342,-0.518773 -0.482574,-0.802734 0.127853,-0.279771 0.605251,-0.121989 0.91244,-0.137908 0.225558,-0.01169 0.454778,0.104474 0.675294,0.05563 0.438277,-0.09708 0.837915,-0.322402 1.256873,-0.483603 0.418958,-0.161201 -0.235385,-0.335943 -0.797278,-0.302812 -0.561893,0.03313 -0.604287,-0.03386 -0.887795,-0.128974 -0.309348,-0.103784 -0.558721,-0.520287 -0.857581,-0.471976 -0.298859,0.04831 -1.06957,0.08176 -1.06957,0.08176 v 0 c 0,0 -0.494974,-0.782254 -0.50717,-1.2236 -0.0058,-0.211492 0.343263,-0.260382 0.46131,-0.435961 0.244305,-0.363372 0.738521,-0.742363 0.612926,-1.161827 -0.117125,-0.391174 -0.748865,-0.326816 -1.113614,-0.510374 -0.44503,-0.223958 -0.951802,-0.369843 -1.314397,-0.711506 -0.202066,-0.190401 -0.02334,-0.669048 -0.275054,-0.786189 -0.219943,-0.102355 -0.433241,0.222635 -0.629494,0.36524 -0.202677,0.147274 -0.311332,0.518259 -0.561198,0.499966 -0.49614,-0.03632 -0.923482,-0.380949 -1.348322,-0.639764 -0.208388,-0.126951 -0.43944,-0.278198 -0.530262,-0.504678 -0.04932,-0.122979 0.251893,-0.234936 0.18728,-0.350612 -0.1853,-0.331742 -0.548964,-0.525541 -0.823446,-0.788312 -0.274482,-0.262771 -1.464043,-0.322841 -1.69909,-0.322841 -0.235047,0 -1.002918,-0.08662 -1.198662,-0.461027 -0.195744,-0.374408 -0.392249,-0.748418 -0.587232,-1.123223 -0.09309,-0.178941 -0.091,-0.459922 -0.276981,-0.538007 -0.423741,-0.177912 -0.925068,-0.03904 -1.370147,-0.153555 -0.429313,-0.110458 -0.846472,-0.285985 -1.226334,-0.514493 -0.257423,-0.154854 -0.485328,-0.370715 -0.656078,-0.61788 -0.03655,-0.05291 0.177605,-0.0094 0.178275,-0.07375 0.0029,-0.282811 -0.04473,-0.577373 -0.16885,-0.831508 -0.285645,-0.584856 -0.627462,-1.149855 -1.043379,-1.650517 -0.223912,-0.269535 -0.611024,-0.364009 -0.846058,-0.623902 -0.363738,-0.402208 -0.465824,-1.05175 -0.927134,-1.336829 -0.480987,-0.297239 -1.175077,-0.0058 -1.674486,-0.270915 -0.286948,-0.152333 -0.374664,-0.546522 -0.457196,-0.86074 -0.06267,-0.2386 -0.199368,-0.276051 0.03697,-0.346773 0.507674,-0.151916 1.038646,0.256019 1.568556,0.258718 0.175877,8.96e-4 0.348167,-0.117367 0.465533,-0.248359 0.192977,-0.215381 0.283265,-0.896716 0.431399,-1.145082 0.194394,-0.325926 0.397378,-0.646651 0.596067,-0.969976 0.198689,-0.323325 -1.644349,-0.649303 -2.0599,-0.716805 -0.41555,-0.0675 -1.477272,0.0408 -1.512347,-0.523827 -0.03507,-0.564632 0.128433,-1.178685 -0.105225,-1.693897 C 39.951474,71.882437 39.424409,71.9394 39.196678,71.68 c -0.244224,-0.278186 -0.218775,-0.725608 -0.448322,-1.016023 -0.418623,-0.529628 -0.473314,-0.880186 -0.93725,-1.370609 -0.237509,-0.251069 -0.523811,-0.491489 -0.637083,-0.81801 -0.111253,-0.320703 0.100873,-0.694226 3.9e-5,-1.018355 -0.109604,-0.35232 -0.459405,-0.587887 -0.605177,-0.926846 -0.206293,-0.479688 -0.584889,-1.176087 -0.965034,-1.53406 -0.270408,-0.254634 -0.765604,0.170505 -1.113549,0.04053 -0.265926,-0.09934 -0.322608,-0.476075 -0.540264,-0.658312 -0.283743,-0.23757 -0.673734,-0.331533 -0.943952,-0.58438 -0.304148,-0.284595 -0.499537,-0.666681 -0.749305,-1.000021 -0.249768,-0.33334 -0.744717,-0.761311 -1.03482,-0.938114 -0.290103,-0.176803 -1.09618,-0.796428 -1.299099,-1.027686 -0.202918,-0.231257 -0.839883,-0.65485 -1.156007,-1.075708 -0.19741,-0.262813 -0.444035,-0.684677 -0.444035,-0.880456 0,-0.19578 -0.26525,-0.612844 -0.117636,-0.938402 0.147615,-0.325558 0.03052,-1.067176 -0.05403,-1.31438 -0.08455,-0.247204 -0.323289,-1.100785 -0.48901,-1.425399 -0.165721,-0.324614 -0.200648,-0.761908 -0.497164,-0.973841 -0.343403,-0.245444 -0.860073,-0.0783 -1.237974,-0.266336 -0.206624,-0.102815 -0.325469,-0.342018 -0.413427,-0.555391 -0.131015,-0.317824 -0.172099,-0.666478 -0.229949,-1.005344 -0.06943,-0.406678 -0.46033,-0.954964 -0.151389,-1.228392 0.265501,-0.234982 0.599969,0.377992 0.901494,0.564513 0.267229,0.165306 0.509063,0.384588 0.80474,0.490951 0.260137,0.09358 0.578524,0.222236 0.823918,0.09492 0.302837,-0.157119 0.366856,-0.579387 0.596382,-0.831804 0.185178,-0.203646 0.630981,-0.249821 0.637372,-0.524997 0.0084,-0.362329 -0.578947,-0.542413 -0.604182,-0.903961 -0.02625,-0.376067 0.459995,-0.652125 0.469269,-1.028993 0.0098,-0.396361 -0.209675,-0.775885 -0.416533,-1.114126 -0.181761,-0.297204 -0.470627,-0.514759 -0.725133,-0.752655 -0.309928,-0.289701 -0.654616,-0.540504 -0.966263,-0.828354 -0.172528,-0.159354 -0.27262,-0.410193 -0.484462,-0.511596 -0.268196,-0.128378 -0.584403,-0.116562 -0.880664,-0.141852 -0.259421,-0.02214 -0.525055,-0.04727 -0.781093,0 -0.187779,0.03467 -0.331968,0.207302 -0.520064,0.240203 -0.278082,0.04864 -0.564607,-7.33e-4 -0.84691,-0.0011 -0.282303,-3.67e-4 -0.263047,-0.400843 -0.246268,-0.695703 0.01678,-0.294859 0.08033,-0.684301 -0.05488,-0.909667 -0.135214,-0.225366 -0.172762,-0.554279 -0.405641,-0.676099 -0.169403,-0.08861 -0.435004,0.02244 -0.544944,0.178845 -0.118493,0.168575 0.08338,0.437004 -0.01515,0.617975 -0.18435,0.338605 -0.448926,0.659797 -0.784173,0.850184 -0.314823,0.178787 -0.705895,0.180205 -1.067328,0.201282 -0.22828,0.01331 -0.57691,0.105275 -0.678756,-0.09946 -0.101152,-0.20334 0.222547,-0.395964 0.33382,-0.593946 0.111273,-0.197982 -0.1527,-0.731183 -0.53122,-0.746976 -0.378519,-0.01579 -0.95096,-0.468647 -1.04722,-0.669456 -0.09626,-0.200809 -0.251315,-0.382912 -0.288779,-0.602426 -0.06048,-0.354372 -0.197671,-0.779473 0.0019,-1.078486 0.219977,-0.329587 0.675304,-0.465552 1.067302,-0.523474 0.295796,-0.04371 0.570874,0.18352 0.864882,0.237974 0.341676,0.06328 0.714096,0.244508 1.036196,0.114128 0.473189,-0.191537 0.771956,-0.668177 1.157934,-1.002266 0.385978,-0.334089 -0.895844,-0.876491 -0.912963,-1.242482 -0.01712,-0.365991 -0.19956,-0.748023 0.01901,-1.124069 l 0.65571,-1.128138 c 0.21857,-0.376046 -0.444861,-1.176848 -0.640072,-1.587007 -0.195211,-0.410158 -0.737484,-1.153846 -1.340285,-1.243509 -0.110224,-0.0164 -0.283733,-0.144891 -0.300643,0.146207 -0.01691,0.291097 -0.199645,0.861608 -0.366236,0.666482 -0.166591,-0.195126 -0.392878,-0.35214 -0.499773,-0.585379 -0.06716,-0.14654 -0.03317,-0.328153 0.0099,-0.48349 0.0541,-0.195141 0.273672,-0.339492 0.274426,-0.541993 8.03e-4,-0.215692 -0.180145,-0.391972 -0.270218,-0.587958 -0.09007,-0.195986 0.123678,0.237538 -0.265577,-0.03781 -0.389255,-0.275353 -0.850344,-0.663817 -0.811058,-1.100485 0.03929,-0.436668 0.07177,-0.874 0.117858,-1.310003 0.03828,-0.362197 0.263122,-0.743236 0.1352,-1.084247 -0.206211,-0.549711 -0.711657,-0.934005 -1.067486,-1.401008 -0.355829,-0.467003 -0.503888,-0.623464 -0.520798,-0.908616 -0.01691,-0.285152 -0.02132,-0.784269 -0.133365,-0.949826 -0.112042,-0.165557 -0.138413,-0.526197 -0.336127,-0.49667 -0.967832,0.06357 -0.81131,0.501426 -1.051687,1.494404 -0.271372,0.230014 -1.236408,0.08306 -0.0015,0.865563 0.351413,0.222679 -0.19061,0.763646 -0.208398,1.179292 -0.01321,0.308567 0.171743,0.624804 0.395141,0.838068 0.231979,0.221455 0.299391,0.279317 0.611102,0.354769 0.136388,0.03301 0.331038,0.04428 0.415486,-0.06779 0.283077,-0.375675 0.633887,-0.159973 0.629467,0.476202 -0.0019,0.27571 0.59838,0.135079 0.891846,-0.294668 0.183251,-0.268351 0.518714,0.500069 0.880022,0.419406 0.361308,-0.08066 0.86711,-0.393377 1.048662,-0.114691 l 0.544656,0.836058 c 0.181552,0.278686 0.724805,-0.277989 0.724805,0.111815 0,0.389805 -0.105649,0.620181 0.08909,0.809132 0.132158,0.12823 0.432513,-0.424092 0.550685,0.04387 0.118173,0.467958 0.109762,0.528236 0.30392,0.502748 0.152075,-0.01996 -0.101263,-0.935797 0.128344,-0.441877 0.229608,0.493919 0.695136,0.790364 0.89064,1.268633 0.128348,0.313983 0.150315,0.719802 0.166137,1.003956 0.01582,0.284153 0.678694,1.151925 0.984824,1.275581 0.30613,0.123656 0.658344,0.167541 0.91839,0.370967 0.325599,0.254707 0.52273,0.640558 0.784095,0.960837 0.261365,0.320279 0.878947,1.148583 1.163872,1.715317 0.284925,0.566733 1.116354,1.31018 1.214235,1.53069 0.09788,0.220511 0.393345,0.431878 0.5693,0.676471 0.175954,0.244594 0.958922,0.765227 1.235379,1.068078 0.276457,0.302851 0.942444,0.307003 1.220369,0.447232 0.277926,0.140229 0.536607,0.139169 0.96178,0.372358 0.425172,0.23319 0.720531,0.223375 0.983251,0.36957 0.262719,0.146195 1.345332,0.55827 1.033653,0.671667 l -0.935038,0.34019 c -0.311679,0.113397 1.008904,0.625037 1.192317,0.884187 0.183414,0.259151 0.488237,-0.117681 0.69113,-0.151238 0.202892,-0.03356 1.017184,-0.200036 1.398802,0.06885 0.206757,0.14568 -0.179612,0.137141 0.290142,0.701112 0.469754,0.563971 1.294943,0.772251 1.743082,1.069524 0.448138,0.297273 0.604053,0.525492 0.894258,0.381302 0.205966,-0.102336 0.533985,-0.269415 0.167683,-0.669278 -0.366303,-0.399863 -0.925522,-0.911331 -1.107913,-1.218656 -0.18239,-0.307324 -0.571034,-1.046975 -0.62269,-1.623562 -0.05166,-0.576587 -0.103312,-1.153175 -0.154968,-1.729762 -0.05166,-0.576587 -0.0941,-0.838298 0.1508,-0.727532 0.244905,0.110767 1.309307,0.434303 1.892111,0.79177 0.09895,0.06069 -0.232439,0.429367 0.265446,0.225426 0.497885,-0.203941 0.341267,-0.854432 0.725644,-0.913591 0.578978,-0.08911 1.172262,0.570964 1.45623,0.983767 0.283968,0.412803 1.268203,0.79825 1.657549,0.912106 0.389347,0.113857 0.764223,-0.09813 1.460294,0.483433 0.696071,0.581566 0.709494,0.526858 1.418438,1.002917 0.708944,0.476059 1.76884,0.874645 2.460048,1.18521 0.691208,0.310565 0.95689,0.119611 1.594721,0.577767 0.63783,0.458157 0.229752,-0.0472 1.085405,0.841303 0.855654,0.8885 1.632289,1.254501 1.860455,1.499446 0.228165,0.244944 1.155706,0.800706 1.547845,1.209748 0.392139,0.409043 0.296395,1.155598 0.222568,1.456617 -0.07383,0.301019 0.896696,1.922465 1.366778,2.1372 0.470082,0.214735 0.955427,0.398791 1.410245,0.644205 0.449713,0.242659 0.864877,0.544507 1.297316,0.81676 0.432439,0.272253 0.78028,0.36313 1.108621,0.67618 0.32834,0.313049 1.779847,0.974855 1.779847,1.18068 0,0.205826 0.315288,0.175834 0.684972,0.413185 0.369685,0.237351 1.10913,0.353138 1.61981,0.625571 0.397959,0.212299 0.81351,0.433548 1.107873,0.776914 0.294364,0.343366 0.838029,1.051674 1.321908,1.435699 0.48388,0.384025 0.600681,0.984588 0.936677,1.588415 0.335995,0.603828 0.634076,1.084881 0.634076,1.413526 0,0.328645 0.672206,0.846651 1.166499,1.357736 0.494294,0.511085 0.913056,0.729072 1.265253,1.246816 0.352198,0.517745 0.854828,1.103544 1.006231,1.472531 0.151402,0.368986 0.911875,1.225553 1.744864,1.553445 0.832989,0.327892 1.744801,0.501373 2.498967,0.983677 0.580694,0.371365 0.938477,1.009816 1.407716,1.514724 0.469239,0.504908 -0.02441,0.714478 0.3528,0.974726 0.377209,0.260249 1.816291,-0.395203 2.714234,0.323618 0.897943,0.718821 1.20246,1.044149 1.839639,1.520504 0.498411,0.372612 0.970077,0.593157 1.547923,1.043655 0.577847,0.450498 1.634177,1.117478 2.010862,1.336484 0.376684,0.219006 2.172068,0.712867 2.554415,0.812068 0.382347,0.0992 0.501634,0.183066 1.554871,0.568513 1.053237,0.385447 1.592733,0.455633 1.927518,0.489112 0.334785,0.03348 1.491793,-0.441082 1.822231,-0.294638 0.330437,0.146444 0.637017,0.343375 1.499474,0.800827 0.862457,0.457452 1.872226,0.107752 2.096381,0.265597 0.224154,0.157845 0.471825,0.607806 0.418998,1.928206 -0.05283,1.3204 -0.09981,1.85879 0.102062,2.481434 0.20187,0.622645 0.267648,0.320915 0.18496,0.85568 -0.08269,0.534766 0.01801,0.445733 0.599633,1.027951 0.581622,0.582218 1.521401,0.850552 1.777421,1.431455 0.25602,0.580903 0.51203,1.161805 0.76805,1.742708 0.25602,0.580903 0.0511,0.519691 0.39761,1.116433 0.34651,0.596742 1.38787,0.647977 1.94978,0.664251 0.5619,0.01627 0.51809,-0.152189 1.38008,-0.08515 0.86198,0.06704 1.78199,-0.384301 2.53454,-3.34e-4 0.36892,0.188232 0.55965,0.0725 0.72909,1.006112 0.16944,0.933615 -0.0379,0.17503 -0.30437,1.406418 -0.2665,1.2314 -0.0819,1.225259 -0.31712,1.930624 -0.23525,0.705366 -0.0956,0.751042 -0.57544,0.783715 -0.47985,0.03267 -1.35757,-0.02937 -2.03396,0.01747 -0.48028,0.03326 -1.70617,-0.0062 -1.43217,0.186782 0.27398,0.192956 1.49782,0.125764 2.24458,0.209597 0.15604,0.01752 0.26592,-0.23097 0.46706,0.06129 0.20113,0.292259 0.14595,-0.296805 0.26568,0.604717 0.11973,0.901521 0.0358,0.732537 0.10295,1.150949 0.0671,0.418404 0.17864,0.684962 -0.14862,0.856892 -0.32727,0.17193 -0.40142,0.05901 -0.7928,0.557771 -0.12897,0.164353 0.87246,0.06483 0.77147,0.284676 -0.20997,0.457087 -1.30206,1.157007 -1.01081,1.041207 l 2.06424,-0.820733 c 0.62968,-0.25036 0.67731,0.09151 1.17717,0.963053 0.49984,0.87152 0.61405,1.14212 1.30969,1.41041 0.69564,0.26829 1.79525,0.19264 2.05894,0.89266 0.13137,0.34874 -0.47741,0.67252 -0.47741,1.01093 0,0.33842 0.85489,0.26314 1.56633,0.26308 0.71144,-6e-5 1.42288,-1.3e-4 2.13432,-1.9e-4 0.71144,-6e-5 0.75226,-0.0996 0.5608,0.4124 -0.19146,0.51196 -0.39527,0.39194 -0.28526,0.57569 0.16805,0.28069 0.55453,-0.32844 0.98095,0.0312 0.42641,0.35962 1.6664,0.75812 2.04655,1.17703 0.38014,0.41892 1.12798,1.01786 1.40538,1.26558 0.2774,0.24772 0.13768,0.12308 0.0669,0.74565 -0.0708,0.62258 -1.07599,0.35455 -1.6041,0.16955 -0.52812,-0.185 -2.26407,-1.25589 -2.27822,-0.47994 -0.006,0.31282 1.91318,1.52768 1.99916,1.87961 0.0904,0.37018 1.08641,0.81025 1.38976,1.26518 0.30336,0.45493 0.12692,0.11681 0.46221,0.79791 0.33528,0.6811 -0.10285,-0.56874 0.60815,1.13312 0.711,1.70186 8.14493,8.12405 8.14493,8.12405"
       id="path11284-8"
       sodipodi:nodetypes="csssssssssssssssssssssssssssssssssssssssssssssssssssssssssssssssssssssssssssssssssssssssssssssssssssssssssssssssssssssssssssssssssssssssssssssssssssssssssssssssssssssssssssssssssssssssssssssssssssssssssssssccssssssssssssssssssssssssssssssssssssssssssssssssssssssssssssssssssssssssssssssssssssssssssssssssssssssssssssssssssssssssssssc" />
    <path
       style="font-variation-settings:normal;display:inline;opacity:0.4;vector-effect:none;fill:none;fill-opacity:1;fill-rule:evenodd;stroke:#000000;stroke-width:0.445708;stroke-linecap:butt;stroke-linejoin:miter;stroke-miterlimit:4;stroke-dasharray:none;stroke-dashoffset:0;stroke-opacity:1;-inkscape-stroke:none;stop-color:#000000;stop-opacity:1"
       d="m 28.043343,29.001219 c 0,0 0.109657,1.148266 0.119476,1.231025 0.0098,0.08276 -0.177094,0.90782 -0.211296,1.053937 -0.0342,0.146118 -0.135361,0.590268 0.05108,0.786501 0.186439,0.196234 0.406143,0.492521 0.523269,0.776807 0.117127,0.284287 0.478585,0.673388 0.704178,1.00657 0.225594,0.333182 0.317032,0.402232 0.5028,0.638212 0.185768,0.23598 1.01519,0.563335 1.01519,0.563335 0,0 -0.0049,-0.172474 0.455834,0.133476 0.460716,0.30595 1.145164,0.618055 1.215019,0.647312 0.06985,0.02926 0.337555,0.04061 0.156814,-0.270922 -0.18074,-0.311534 -0.584365,-0.860961 -0.648101,-1.099563 -0.06374,-0.238603 -0.142014,-0.52585 -0.315804,-0.791206 -0.17379,-0.265355 0.132218,0.202757 -0.630745,-0.896784 -0.762962,-1.099542 -0.904465,-1.210952 -0.904465,-1.210952 0,0 -0.241859,-0.117306 -0.32254,-0.217515 -0.08068,-0.100209 -0.145607,-0.474454 -0.332718,-0.773912 -0.187111,-0.299457 -0.490921,-0.545856 -0.642341,-0.706921 -0.151421,-0.161065 -0.140366,-0.745845 -0.205529,-0.79169 -0.06516,-0.04584 -0.53012,-0.07771 -0.530121,-0.07771 z"
       id="path11292" />
    <path
       style="font-variation-settings:normal;display:inline;opacity:0.4;vector-effect:none;fill:none;fill-opacity:1;fill-rule:evenodd;stroke:#000000;stroke-width:0.445708;stroke-linecap:butt;stroke-linejoin:miter;stroke-miterlimit:4;stroke-dasharray:none;stroke-dashoffset:0;stroke-opacity:1;-inkscape-stroke:none;stop-color:#000000;stop-opacity:1"
       d="M 6.7728805,30.519468 C 6.7448788,30.235621 6.5028508,30.016238 6.3892403,29.754617 6.3023548,29.554538 6.1049492,29.344507 6.1725922,29.13713 6.2513279,28.895746 6.5588328,28.807463 6.7519531,28.642629 6.9450734,28.477795 7.006691,27.923445 6.9283867,27.801068 6.8500827,27.678692 6.2092476,27.221935 6.0903664,27.187957 5.9714851,27.153977 5.4301497,27.051184 5.2447243,27.090247 c -0.1854242,0.03906 -0.7364197,0.141676 -0.7931977,0.2378 -0.056778,0.09613 -0.3305359,0.515721 -0.3500824,0.667591 -0.019547,0.15187 -0.027645,0.512306 0.058296,0.648909 0.085941,0.136602 0.1348992,0.268368 0.3744355,0.449399 0.2395363,0.18103 0.8446769,0.19804 0.8480301,0.28115 0.00335,0.08311 -0.022203,0.469785 0.070476,0.67681 0.1004474,0.224378 0.4081039,0.465581 0.4962425,0.545584 0.088139,0.08 0.4370483,0.165342 0.5337753,0.104501 0.096727,-0.06084 0.3013993,-0.06881 0.2901809,-0.182523 z"
       id="path11378"
       sodipodi:nodetypes="ssssssssssssssss" />
  </g>
  <g
     inkscape:groupmode="layer"
     id="layer28"
     inkscape:label="labels"
     style="display:inline"
     transform="translate(-3.8656193,-22.02836)">
    <text
       xml:space="preserve"
       style="font-size:5.33333px;line-height:125%;font-family:'Linux Libertine O';-inkscape-font-specification:'Linux Libertine O';font-variant-ligatures:none;letter-spacing:0px;word-spacing:0px;writing-mode:lr-tb;display:inline;fill:#000000;stroke:none;stroke-width:1px;stroke-linecap:butt;stroke-linejoin:miter;stroke-opacity:1"
       x="55.450779"
       y="53.624828"
       id="text12990"><tspan
         sodipodi:role="line"
         id="tspan12988"
         x="55.450779"
         y="53.624828">Caac</tspan></text>
    <text
       xml:space="preserve"
       style="font-size:5.33333px;line-height:125%;font-family:'Linux Libertine O';-inkscape-font-specification:'Linux Libertine O';font-variant-ligatures:none;letter-spacing:0px;word-spacing:0px;writing-mode:lr-tb;display:inline;fill:#000000;stroke:none;stroke-width:1px;stroke-linecap:butt;stroke-linejoin:miter;stroke-opacity:1"
       x="22.752657"
       y="121.21402"
       id="text12994"
       transform="rotate(-31.261641)"><tspan
         sodipodi:role="line"
         id="tspan12992"
         x="22.752657"
         y="121.21402">Cmuh</tspan></text>
    <text
       xml:space="preserve"
       style="font-size:5.33333px;line-height:125%;font-family:'Linux Libertine O';-inkscape-font-specification:'Linux Libertine O';font-variant-ligatures:none;letter-spacing:0px;word-spacing:0px;writing-mode:lr-tb;display:inline;fill:#000000;stroke:none;stroke-width:1px;stroke-linecap:butt;stroke-linejoin:miter;stroke-opacity:1"
       x="98.004417"
       y="23.551283"
       id="text12998"
       transform="rotate(32.228553)"><tspan
         sodipodi:role="line"
         id="tspan12996"
         x="98.004417"
         y="23.551283">Fwi</tspan></text>
    <text
       xml:space="preserve"
       style="font-size:5.33333px;line-height:125%;font-family:'Linux Libertine O';-inkscape-font-specification:'Linux Libertine O';font-variant-ligatures:none;letter-spacing:0px;word-spacing:0px;writing-mode:lr-tb;display:inline;fill:#000000;stroke:none;stroke-width:1px;stroke-linecap:butt;stroke-linejoin:miter;stroke-opacity:1"
       x="2.193074"
       y="90.901009"
       id="text13006"
       transform="rotate(-38.237162)"><tspan
         sodipodi:role="line"
         id="tspan13004"
         x="2.193074"
         y="90.901009">Jaw</tspan></text>
    <text
       xml:space="preserve"
       style="font-size:5.33333px;line-height:125%;font-family:'Linux Libertine O';-inkscape-font-specification:'Linux Libertine O';font-variant-ligatures:none;letter-spacing:0px;word-spacing:0px;writing-mode:lr-tb;display:inline;fill:#000000;stroke:none;stroke-width:1px;stroke-linecap:butt;stroke-linejoin:miter;stroke-opacity:1"
       x="12.033971"
       y="60.415981"
       id="text13010"><tspan
         sodipodi:role="line"
         id="tspan13008"
         x="12.033971"
         y="60.415981">Kumak</tspan></text>
    <text
       xml:space="preserve"
       style="font-size:4px;line-height:125%;font-family:'Linux Libertine O';-inkscape-font-specification:'Linux Libertine O';font-variant-ligatures:none;letter-spacing:0px;word-spacing:0px;writing-mode:lr-tb;display:inline;fill:#000000;stroke:none;stroke-width:1px;stroke-linecap:butt;stroke-linejoin:miter;stroke-opacity:1"
       x="0.84790164"
       y="123.38206"
       id="text13002"
       transform="rotate(-27.34575)"><tspan
         sodipodi:role="line"
         id="tspan13000"
         x="0.84790164"
         y="123.38206">Haeke</tspan></text>
    <text
       xml:space="preserve"
       style="font-size:4px;line-height:125%;font-family:'Linux Libertine O';-inkscape-font-specification:'Linux Libertine O';font-variant-ligatures:none;letter-spacing:0px;word-spacing:0px;writing-mode:lr-tb;display:inline;fill:#000000;stroke:none;stroke-width:1px;stroke-linecap:butt;stroke-linejoin:miter;stroke-opacity:1"
       x="-18.197994"
       y="115.91665"
       id="text13002-5"
       transform="rotate(-27.34575)"><tspan
         sodipodi:role="line"
         id="tspan13000-3"
         x="-18.197994"
         y="115.91665">Haake</tspan></text>
    <text
       xml:space="preserve"
       style="font-size:4px;line-height:125%;font-family:'Linux Libertine O';-inkscape-font-specification:'Linux Libertine O';font-variant-ligatures:none;letter-spacing:0px;word-spacing:0px;writing-mode:lr-tb;display:inline;fill:#000000;stroke:none;stroke-width:1px;stroke-linecap:butt;stroke-linejoin:miter;stroke-opacity:1"
       x="-18.32312"
       y="112.08724"
       id="text13002-1"
       transform="rotate(-27.34575)"><tspan
         sodipodi:role="line"
         id="tspan13000-4"
         x="-18.32312"
         y="112.08724">Haveke</tspan></text>
    <text
       xml:space="preserve"
       style="font-size:4px;line-height:125%;font-family:'Linux Libertine O';-inkscape-font-specification:'Linux Libertine O';font-variant-ligatures:none;letter-spacing:0px;word-spacing:0px;writing-mode:lr-tb;display:inline;fill:#000000;stroke:none;stroke-width:1px;stroke-linecap:butt;stroke-linejoin:miter;stroke-opacity:1"
       x="-18.400373"
       y="108.28259"
       id="text13014"
       transform="rotate(-27.34575)"><tspan
         sodipodi:role="line"
         id="tspan13012"
         x="-18.400373"
         y="108.28259">Hmwaeke</tspan></text>
    <text
       xml:space="preserve"
       style="font-size:4px;line-height:125%;font-family:'Linux Libertine O';-inkscape-font-specification:'Linux Libertine O';font-variant-ligatures:none;letter-spacing:0px;word-spacing:0px;writing-mode:lr-tb;display:inline;fill:#000000;stroke:none;stroke-width:1px;stroke-linecap:butt;stroke-linejoin:miter;stroke-opacity:1"
       x="-18.389563"
       y="104.52348"
       id="text13018"
       transform="rotate(-27.34575)"><tspan
         sodipodi:role="line"
         id="tspan13016"
         x="-18.389563"
         y="104.52348">Hmwaveke</tspan></text>
    <text
       xml:space="preserve"
       style="font-size:5.33333px;line-height:125%;font-family:'Linux Libertine O';-inkscape-font-specification:'Linux Libertine O';font-variant-ligatures:none;letter-spacing:0px;word-spacing:0px;writing-mode:lr-tb;display:inline;fill:#000000;stroke:none;stroke-width:1px;stroke-linecap:butt;stroke-linejoin:miter;stroke-opacity:1"
       x="15.942701"
       y="25.751024"
       id="text13022"><tspan
         sodipodi:role="line"
         id="tspan13020"
         x="15.942701"
         y="25.751024">Nlmw</tspan></text>
    <text
       xml:space="preserve"
       style="font-size:5.33333px;line-height:125%;font-family:'Linux Libertine O';-inkscape-font-specification:'Linux Libertine O';font-variant-ligatures:none;letter-spacing:0px;word-spacing:0px;writing-mode:lr-tb;display:inline;fill:#000000;stroke:none;stroke-width:1px;stroke-linecap:butt;stroke-linejoin:miter;stroke-opacity:1"
       x="-54.285427"
       y="88.120056"
       id="text13026"
       transform="rotate(-72.090195)"><tspan
         sodipodi:role="line"
         id="tspan13024"
         x="-54.285427"
         y="88.120056">Nemi</tspan></text>
    <text
       xml:space="preserve"
       style="font-size:5.33333px;line-height:125%;font-family:'Linux Libertine O';-inkscape-font-specification:'Linux Libertine O';font-variant-ligatures:none;letter-spacing:0px;word-spacing:0px;writing-mode:lr-tb;display:inline;fill:#000000;stroke:none;stroke-width:1px;stroke-linecap:butt;stroke-linejoin:miter;stroke-opacity:1"
       x="83.033936"
       y="106.16557"
       id="text13030"><tspan
         sodipodi:role="line"
         id="tspan13028"
         x="83.033936"
         y="106.16557">Paic</tspan></text>
    <text
       xml:space="preserve"
       style="font-size:5.33333px;line-height:125%;font-family:'Linux Libertine O';-inkscape-font-specification:'Linux Libertine O';font-variant-ligatures:none;letter-spacing:0px;word-spacing:0px;writing-mode:lr-tb;display:inline;fill:#000000;stroke:none;stroke-width:1px;stroke-linecap:butt;stroke-linejoin:miter;stroke-opacity:1"
       x="6.9900026"
       y="106.02412"
       id="text13034"
       transform="rotate(-27.750677)"><tspan
         sodipodi:role="line"
         id="tspan13032"
         x="6.9900026"
         y="106.02412">Pwaamei</tspan></text>
    <text
       xml:space="preserve"
       style="font-size:5.33333px;line-height:125%;font-family:'Linux Libertine O';-inkscape-font-specification:'Linux Libertine O';font-variant-ligatures:none;letter-spacing:0px;word-spacing:0px;writing-mode:lr-tb;display:inline;fill:#000000;stroke:none;stroke-width:1px;stroke-linecap:butt;stroke-linejoin:miter;stroke-opacity:1"
       x="32.217354"
       y="89.169083"
       id="text13038"><tspan
         sodipodi:role="line"
         id="tspan13036"
         x="32.217354"
         y="89.169083">Pwapw</tspan></text>
    <text
       xml:space="preserve"
       style="font-size:5.33333px;line-height:125%;font-family:'Linux Libertine O';-inkscape-font-specification:'Linux Libertine O';font-variant-ligatures:none;letter-spacing:0px;word-spacing:0px;writing-mode:lr-tb;display:inline;fill:#000000;stroke:none;stroke-width:1px;stroke-linecap:butt;stroke-linejoin:miter;stroke-opacity:1"
       x="74.03196"
       y="81.149475"
       id="text13042"><tspan
         sodipodi:role="line"
         id="tspan13040"
         x="74.03196"
         y="81.149475">Pije</tspan></text>
    <text
       xml:space="preserve"
       style="font-size:5.33333px;line-height:125%;font-family:'Linux Libertine O';-inkscape-font-specification:'Linux Libertine O';font-variant-ligatures:none;letter-spacing:0px;word-spacing:0px;writing-mode:lr-tb;display:inline;fill:#000000;stroke:none;stroke-width:1px;stroke-linecap:butt;stroke-linejoin:miter;stroke-opacity:1"
       x="40.555424"
       y="40.531189"
       id="text13046"><tspan
         sodipodi:role="line"
         id="tspan13044"
         x="40.555424"
         y="40.531189">Nyelyu</tspan></text>
    <text
       xml:space="preserve"
       style="font-size:5.33333px;line-height:125%;font-family:'Linux Libertine O';-inkscape-font-specification:'Linux Libertine O';font-variant-ligatures:none;letter-spacing:0px;word-spacing:0px;writing-mode:lr-tb;display:inline;fill:#000000;stroke:none;stroke-width:1px;stroke-linecap:butt;stroke-linejoin:miter;stroke-opacity:1"
       x="41.506752"
       y="62.788635"
       id="text13050"><tspan
         sodipodi:role="line"
         id="tspan13048"
         x="41.506752"
         y="62.788635">Yuanga</tspan></text>
    <text
       xml:space="preserve"
       style="font-size:5.33333px;line-height:125%;font-family:'Linux Libertine O';-inkscape-font-specification:'Linux Libertine O';font-variant-ligatures:none;letter-spacing:0px;word-spacing:0px;writing-mode:lr-tb;display:inline;fill:#000000;stroke:none;stroke-width:1px;stroke-linecap:butt;stroke-linejoin:miter;stroke-opacity:1"
       x="86.027061"
       y="76.469666"
       id="text13038-0"><tspan
         sodipodi:role="line"
         id="tspan13036-7"
         x="86.027061"
         y="76.469666"
         style="font-style:normal;font-variant:normal;font-weight:bold;font-stretch:normal;font-family:'Linux Libertine O';-inkscape-font-specification:'Linux Libertine O Bold'">Vamale</tspan></text>
    <path
       style="fill:none;fill-rule:evenodd;stroke:#000000;stroke-width:0.4;stroke-linecap:butt;stroke-linejoin:miter;stroke-dasharray:none;stroke-opacity:1;marker-end:url(#Arrow4)"
       d="M 86.852762,75.964648 84.70436,77.995477"
       id="path13305"
       sodipodi:nodetypes="cc" />
    <path
       style="fill:none;fill-rule:evenodd;stroke:#000000;stroke-width:0.202589;stroke-linecap:butt;stroke-linejoin:miter;stroke-opacity:1"
       d="M 47.774346,96.215789 62.71785,89.539768"
       id="path784"
       sodipodi:nodetypes="cc" />
    <path
       style="fill:none;fill-rule:evenodd;stroke:#000000;stroke-width:0.202589;stroke-linecap:butt;stroke-linejoin:miter;stroke-opacity:1"
       d="M 48.088748,92.689159 62.736466,88.867756"
       id="path13740"
       sodipodi:nodetypes="cc" />
    <path
       style="fill:none;fill-rule:evenodd;stroke:#000000;stroke-width:0.202589;stroke-linecap:butt;stroke-linejoin:miter;stroke-opacity:1"
       d="m 46.751553,106.14195 39.816779,13.97541"
       id="path13742"
       sodipodi:nodetypes="cc" />
    <path
       style="font-variation-settings:normal;opacity:1;vector-effect:none;fill:none;fill-opacity:1;fill-rule:evenodd;stroke:#000000;stroke-width:0.202589;stroke-linecap:butt;stroke-linejoin:miter;stroke-miterlimit:4;stroke-dasharray:none;stroke-dashoffset:0;stroke-opacity:1;-inkscape-stroke:none;stop-color:#000000;stop-opacity:1"
       d="m 58.327752,92.384675 -12.43918,8.938685"
       id="path849"
       sodipodi:nodetypes="cc" />
    <path
       style="font-variation-settings:normal;opacity:1;vector-effect:none;fill:none;fill-opacity:1;fill-rule:evenodd;stroke:#000000;stroke-width:0.202589;stroke-linecap:butt;stroke-linejoin:miter;stroke-miterlimit:4;stroke-dasharray:none;stroke-dashoffset:0;stroke-opacity:1;-inkscape-stroke:none;stop-color:#000000;stop-opacity:1"
       d="M 62.298474,96.219313 46.170886,101.62271"
       id="path851"
       sodipodi:nodetypes="cc" />
    <path
       style="font-variation-settings:normal;opacity:1;vector-effect:none;fill:none;fill-opacity:1;fill-rule:evenodd;stroke:#000000;stroke-width:0.202589;stroke-linecap:butt;stroke-linejoin:miter;stroke-miterlimit:4;stroke-dasharray:none;stroke-dashoffset:0;stroke-opacity:1;-inkscape-stroke:none;stop-color:#000000;stop-opacity:1"
       d="m 73.144194,100.51289 c -0.47513,0.17677 -6.897785,3.39567 -6.897785,3.39567"
       id="path853"
       sodipodi:nodetypes="cc" />
    <path
       style="font-variation-settings:normal;opacity:1;vector-effect:none;fill:none;fill-opacity:1;fill-rule:evenodd;stroke:#000000;stroke-width:0.202589;stroke-linecap:butt;stroke-linejoin:miter;stroke-miterlimit:4;stroke-dasharray:none;stroke-dashoffset:0;stroke-opacity:1;-inkscape-stroke:none;stop-color:#000000;stop-opacity:1"
       d="m 63.337458,97.094576 -16.83118,8.505754"
       id="path984"
       sodipodi:nodetypes="cc" />
  </g>
  <g
     inkscape:groupmode="layer"
     id="layer29"
     inkscape:label="towns"
     style="display:inline"
     transform="translate(-3.8656193,-22.02836)">
    <text
       xml:space="preserve"
       style="font-style:normal;font-variant:normal;font-weight:normal;font-stretch:normal;font-size:2.66667px;line-height:125%;font-family:Arimo;-inkscape-font-specification:Arimo;font-variant-ligatures:none;letter-spacing:0px;word-spacing:0px;writing-mode:lr-tb;fill:#000000;stroke:none;stroke-width:1px;stroke-linecap:butt;stroke-linejoin:miter;stroke-opacity:1"
       x="49.666447"
       y="45.677486"
       id="text13118"><tspan
         sodipodi:role="line"
         id="tspan13116"
         x="49.666447"
         y="45.677486">Balade</tspan></text>
    <text
       xml:space="preserve"
       style="font-style:normal;font-variant:normal;font-weight:normal;font-stretch:normal;font-size:2.66667px;line-height:125%;font-family:Arimo;-inkscape-font-specification:Arimo;font-variant-ligatures:none;letter-spacing:0px;word-spacing:0px;writing-mode:lr-tb;fill:#000000;stroke:none;stroke-width:1px;stroke-linecap:butt;stroke-linejoin:miter;stroke-opacity:1"
       x="54.678761"
       y="50.081615"
       id="text13122"><tspan
         sodipodi:role="line"
         id="tspan13120"
         x="54.678761"
         y="50.081615">Pouebo</tspan></text>
    <text
       xml:space="preserve"
       style="font-style:normal;font-variant:normal;font-weight:normal;font-stretch:normal;font-size:2.66667px;line-height:125%;font-family:Arimo;-inkscape-font-specification:Arimo;font-variant-ligatures:none;letter-spacing:0px;word-spacing:0px;writing-mode:lr-tb;fill:#000000;stroke:none;stroke-width:1px;stroke-linecap:butt;stroke-linejoin:miter;stroke-opacity:1"
       x="77.92115"
       y="72.3302"
       id="text13126"><tspan
         sodipodi:role="line"
         id="tspan13124"
         x="77.92115"
         y="72.3302">Hienghne</tspan></text>
    <text
       xml:space="preserve"
       style="font-style:normal;font-variant:normal;font-weight:normal;font-stretch:normal;font-size:2.66667px;line-height:125%;font-family:Arimo;-inkscape-font-specification:Arimo;font-variant-ligatures:none;letter-spacing:0px;word-spacing:0px;writing-mode:lr-tb;fill:#000000;stroke:none;stroke-width:1px;stroke-linecap:butt;stroke-linejoin:miter;stroke-opacity:1"
       x="99.146927"
       y="80.888283"
       id="text13130"><tspan
         sodipodi:role="line"
         id="tspan13128"
         x="99.146927"
         y="80.888283">Touho</tspan></text>
    <text
       xml:space="preserve"
       style="font-style:normal;font-variant:normal;font-weight:normal;font-stretch:normal;font-size:2.66667px;line-height:125%;font-family:Arimo;-inkscape-font-specification:Arimo;font-variant-ligatures:none;letter-spacing:0px;word-spacing:0px;writing-mode:lr-tb;fill:#000000;stroke:none;stroke-width:1px;stroke-linecap:butt;stroke-linejoin:miter;stroke-opacity:1"
       x="103.21161"
       y="89.942787"
       id="text13134"><tspan
         sodipodi:role="line"
         id="tspan13132"
         x="103.21161"
         y="89.942787">Poindimi</tspan></text>
    <text
       xml:space="preserve"
       style="font-style:normal;font-variant:normal;font-weight:normal;font-stretch:normal;font-size:2.66667px;line-height:125%;font-family:Arimo;-inkscape-font-specification:Arimo;font-variant-ligatures:none;letter-spacing:0px;word-spacing:0px;writing-mode:lr-tb;fill:#000000;stroke:none;stroke-width:1px;stroke-linecap:butt;stroke-linejoin:miter;stroke-opacity:1"
       x="108.52245"
       y="100.36387"
       id="text13138"><tspan
         sodipodi:role="line"
         id="tspan13136"
         x="108.52245"
         y="100.36387">Ponrihouen</tspan></text>
    <text
       xml:space="preserve"
       style="font-style:normal;font-variant:normal;font-weight:normal;font-stretch:normal;font-size:2.66667px;line-height:125%;font-family:Arimo;-inkscape-font-specification:Arimo;font-variant-ligatures:none;letter-spacing:0px;word-spacing:0px;writing-mode:lr-tb;fill:#000000;stroke:none;stroke-width:1px;stroke-linecap:butt;stroke-linejoin:miter;stroke-opacity:1"
       x="23.446426"
       y="64.766052"
       id="text13142"><tspan
         sodipodi:role="line"
         id="tspan13140"
         x="23.446426"
         y="64.766052">Koumak</tspan></text>
    <text
       xml:space="preserve"
       style="font-style:normal;font-variant:normal;font-weight:normal;font-stretch:normal;font-size:2.66667px;line-height:125%;font-family:Arimo;-inkscape-font-specification:Arimo;font-variant-ligatures:none;letter-spacing:0px;word-spacing:0px;writing-mode:lr-tb;fill:#000000;stroke:none;stroke-width:1px;stroke-linecap:butt;stroke-linejoin:miter;stroke-opacity:1"
       x="10.052683"
       y="43.267296"
       id="text13146"><tspan
         sodipodi:role="line"
         id="tspan13144"
         x="10.052683"
         y="43.267296">Poum</tspan></text>
    <text
       xml:space="preserve"
       style="font-style:normal;font-variant:normal;font-weight:normal;font-stretch:normal;font-size:2.66667px;line-height:125%;font-family:Arimo;-inkscape-font-specification:Arimo;font-variant-ligatures:none;letter-spacing:0px;word-spacing:0px;writing-mode:lr-tb;fill:#000000;stroke:none;stroke-width:1px;stroke-linecap:butt;stroke-linejoin:miter;stroke-opacity:1"
       x="36.362988"
       y="54.279911"
       id="text13150"><tspan
         sodipodi:role="line"
         id="tspan13148"
         x="36.362988"
         y="54.279911">Bond</tspan></text>
    <text
       xml:space="preserve"
       style="font-style:normal;font-variant:normal;font-weight:normal;font-stretch:normal;font-size:2.66667px;line-height:125%;font-family:Arimo;-inkscape-font-specification:Arimo;font-variant-ligatures:none;letter-spacing:0px;word-spacing:0px;writing-mode:lr-tb;fill:#000000;stroke:none;stroke-width:1px;stroke-linecap:butt;stroke-linejoin:miter;stroke-opacity:1"
       x="42.948601"
       y="69.209099"
       id="text13154"><tspan
         sodipodi:role="line"
         id="tspan13152"
         x="42.948601"
         y="69.209099">Gomen</tspan></text>
    <text
       xml:space="preserve"
       style="font-style:normal;font-variant:normal;font-weight:normal;font-stretch:normal;font-size:2.66667px;line-height:125%;font-family:Arimo;-inkscape-font-specification:Arimo;font-variant-ligatures:none;letter-spacing:0px;word-spacing:0px;writing-mode:lr-tb;fill:#000000;stroke:none;stroke-width:1px;stroke-linecap:butt;stroke-linejoin:miter;stroke-opacity:1"
       x="67.157951"
       y="94.99881"
       id="text13158"><tspan
         sodipodi:role="line"
         id="tspan13156"
         x="67.157951"
         y="94.99881">Kone</tspan></text>
    <circle
       id="circle13164"
       style="fill:#000000;stroke:none;stroke-width:0.340174"
       cx="48.864452"
       cy="46.213531"
       r="0.51025981" />
    <circle
       id="circle13166"
       style="fill:#000000;stroke:none;stroke-width:0.340174"
       cx="54.579807"
       cy="51.152596"
       r="0.51025981" />
    <circle
       id="circle13168"
       style="fill:#000000;stroke:none;stroke-width:0.340174"
       cx="97.373016"
       cy="80.55114"
       r="0.51025981" />
    <circle
       id="circle13170"
       style="fill:#000000;stroke:none;stroke-width:0.340174"
       cx="71.742012"
       cy="98.809105"
       r="0.51025981" />
    <circle
       id="circle13172"
       style="fill:#000000;stroke:none;stroke-width:0.340174"
       cx="42.226154"
       cy="69.525764"
       r="0.51025981" />
    <circle
       id="circle13174"
       style="fill:#000000;stroke:none;stroke-width:0.340174"
       cx="45.174778"
       cy="53.355335"
       r="0.51025981" />
    <circle
       id="circle13176"
       style="fill:#000000;stroke:none;stroke-width:0.340174"
       cx="102.06734"
       cy="90.942062"
       r="0.51025981" />
    <circle
       id="circle13178"
       style="fill:#000000;stroke:none;stroke-width:0.340174"
       cx="107.56511"
       cy="100.23096"
       r="0.51025981" />
    <circle
       id="circle13180"
       style="fill:#000000;stroke:none;stroke-width:0.340174"
       cx="77.265907"
       cy="73.486374"
       r="0.51025981" />
  </g>
</svg>
