<?xml version="1.0" encoding="UTF-8" standalone="no"?>
<!-- Created with Inkscape (http://www.inkscape.org/) -->

<svg
   version="1.1"
   id="svg10493"
   width="1835.0682"
   height="1397.1754"
   viewBox="0 0 1835.0683 1397.1755"
   sodipodi:docname="pamale.svg"
   inkscape:version="1.2.2 (b0a8486541, 2022-12-01)"
   inkscape:export-filename="pamale.png"
   inkscape:export-xdpi="32"
   inkscape:export-ydpi="32"
   xmlns:inkscape="http://www.inkscape.org/namespaces/inkscape"
   xmlns:sodipodi="http://sodipodi.sourceforge.net/DTD/sodipodi-0.dtd"
   xmlns:xlink="http://www.w3.org/1999/xlink"
   xmlns="http://www.w3.org/2000/svg"
   xmlns:svg="http://www.w3.org/2000/svg">
  <defs
     id="defs10497">
    <filter
       inkscape:collect="always"
       style="color-interpolation-filters:sRGB"
       id="filter11071"
       x="-0.016452212"
       y="-0.11995166"
       width="1.0526751"
       height="1.2251648">
      <feGaussianBlur
         inkscape:collect="always"
         stdDeviation="0.67354102"
         id="feGaussianBlur11073" />
    </filter>
    <filter
       inkscape:collect="always"
       style="color-interpolation-filters:sRGB"
       id="filter11075"
       x="-0.066683199"
       y="-0.010909612"
       width="1.1335088"
       height="1.0169439">
      <feGaussianBlur
         inkscape:collect="always"
         stdDeviation="0.67354102"
         id="feGaussianBlur11077" />
    </filter>
    <filter
       inkscape:collect="always"
       style="color-interpolation-filters:sRGB"
       id="filter11079"
       x="-0.013380612"
       y="-0.0033312827"
       width="1.0266428"
       height="1.0065631">
      <feGaussianBlur
         inkscape:collect="always"
         stdDeviation="0.67354102"
         id="feGaussianBlur11081" />
    </filter>
    <filter
       inkscape:collect="always"
       style="color-interpolation-filters:sRGB"
       id="filter11083"
       x="-0.0082814965"
       y="-0.049786069"
       width="1.0339269"
       height="1.0990497">
      <feGaussianBlur
         inkscape:collect="always"
         stdDeviation="0.67354102"
         id="feGaussianBlur11085" />
    </filter>
    <filter
       inkscape:collect="always"
       style="color-interpolation-filters:sRGB"
       id="filter11087"
       x="-0.02996668"
       y="-0.050162467"
       width="1.0627032"
       height="1.0872594">
      <feGaussianBlur
         inkscape:collect="always"
         stdDeviation="0.67354102"
         id="feGaussianBlur11089" />
    </filter>
    <filter
       inkscape:collect="always"
       style="color-interpolation-filters:sRGB"
       id="filter11091"
       x="-0.017072461"
       y="-0.035083977"
       width="1.0242155"
       height="1.0794895">
      <feGaussianBlur
         inkscape:collect="always"
         stdDeviation="0.67354102"
         id="feGaussianBlur11093" />
    </filter>
  </defs>
  <sodipodi:namedview
     id="namedview10495"
     pagecolor="#ffffff"
     bordercolor="#666666"
     borderopacity="1.0"
     inkscape:showpageshadow="2"
     inkscape:pageopacity="0.0"
     inkscape:pagecheckerboard="0"
     inkscape:deskcolor="#d1d1d1"
     showgrid="false"
     inkscape:zoom="1.0448257"
     inkscape:cx="609.19253"
     inkscape:cy="587.65784"
     inkscape:window-width="3840"
     inkscape:window-height="2136"
     inkscape:window-x="0"
     inkscape:window-y="1440"
     inkscape:window-maximized="1"
     inkscape:current-layer="g10499" />
  <g
     inkscape:groupmode="layer"
     inkscape:label="Image"
     id="g10499"
     transform="translate(-1134.5319,-12.644185)">
    <image
       width="3033"
       height="1807"
       preserveAspectRatio="none"
       style="image-rendering:optimizeQuality"
       xlink:href="osmbase5.png"
       id="image10501" />
    <path
       style="font-variation-settings:normal;opacity:1;vector-effect:none;fill:none;fill-opacity:1;fill-rule:evenodd;stroke:#5599ff;stroke-width:7.23825;stroke-linecap:butt;stroke-linejoin:miter;stroke-miterlimit:4;stroke-dasharray:none;stroke-dashoffset:0;stroke-opacity:1;-inkscape-stroke:none;stop-color:#000000;stop-opacity:1;filter:url(#filter11071)"
       d="m 1536.8714,332.07701 c 1.4634,-0.28609 9.7331,-3.73099 12.977,-1.70068 3.2439,2.03031 8.4359,8.28812 10.3692,9.30328 1.9333,1.01515 12.2315,1.6754 13.6843,1.37312 1.4528,-0.30229 5.6464,1.09223 7.4065,2.7274 1.76,1.63517 9.0896,1.65805 13.7294,1.65805 4.6399,0 11.8805,-2.89164 13.751,0 1.8705,2.89164 4.2579,0.34871 13.5667,3.23003 9.3089,2.88131 19.3353,2.70055 16.9666,6.76117 -2.3687,4.06062 -4.0673,5.67398 0.5822,5.64655 4.6494,-0.0274 2.0646,-2.70741 10.6644,-2.70741 8.5999,0 15.5063,-2.45516 19.3227,1.98463 3.8164,4.43979 8.0747,8.53505 11.4491,13.31937 0.3234,0.45859 -0.8685,0.71096 -1.3027,1.06644"
       id="path10631"
       sodipodi:nodetypes="cssssssssssssc" />
    <text
       xml:space="preserve"
       style="font-style:italic;font-variant:normal;font-weight:600;font-stretch:normal;font-size:53.3333px;line-height:125%;font-family:'Linux Libertine O';-inkscape-font-specification:'Linux Libertine O Semi-Bold Italic';font-variant-ligatures:none;letter-spacing:0px;word-spacing:0px;writing-mode:lr-tb;fill:#0000ff;stroke:#b3b3b3;stroke-width:1px;stroke-linecap:butt;stroke-linejoin:miter;stroke-opacity:1"
       x="1323.1888"
       y="-1170.2842"
       id="text11149"
       transform="rotate(78.420199)"><tspan
         sodipodi:role="line"
         id="tspan11147"
         x="1323.1888"
         y="-1170.2842">Pamale</tspan></text>
    <text
       xml:space="preserve"
       style="font-style:italic;font-variant:normal;font-weight:600;font-stretch:normal;font-size:53.3333px;line-height:125%;font-family:'Linux Libertine O';-inkscape-font-specification:'Linux Libertine O Semi-Bold Italic';font-variant-ligatures:none;font-variant-position:normal;font-variant-caps:normal;font-variant-numeric:normal;font-variant-alternates:normal;font-variant-east-asian:normal;font-feature-settings:normal;font-variation-settings:normal;text-indent:0;text-align:start;text-decoration-line:none;text-decoration-style:solid;text-decoration-color:#000000;letter-spacing:0px;word-spacing:0px;text-transform:none;writing-mode:lr-tb;direction:ltr;text-orientation:mixed;dominant-baseline:auto;baseline-shift:baseline;white-space:normal;opacity:1;vector-effect:none;fill:#5599ff;fill-opacity:1;stroke:#b3b3b3;stroke-width:1px;stroke-linecap:butt;stroke-linejoin:miter;stroke-miterlimit:4;stroke-dasharray:none;stroke-dashoffset:0;stroke-opacity:1;-inkscape-stroke:none;stop-color:#000000;stop-opacity:1"
       x="872.32898"
       y="1203.8711"
       id="text14323"
       transform="rotate(-21.9663)"><tspan
         sodipodi:role="line"
         id="tspan14321"
         x="872.32898"
         y="1203.8711">Usa</tspan></text>
    <text
       xml:space="preserve"
       style="font-style:italic;font-variant:normal;font-weight:600;font-stretch:normal;font-size:53.3333px;line-height:125%;font-family:'Linux Libertine O';-inkscape-font-specification:'Linux Libertine O Semi-Bold Italic';font-variant-ligatures:none;font-variant-position:normal;font-variant-caps:normal;font-variant-numeric:normal;font-variant-alternates:normal;font-variant-east-asian:normal;font-feature-settings:normal;font-variation-settings:normal;text-indent:0;text-align:start;text-decoration-line:none;text-decoration-style:solid;text-decoration-color:#000000;letter-spacing:0px;word-spacing:0px;text-transform:none;writing-mode:lr-tb;direction:ltr;text-orientation:mixed;dominant-baseline:auto;baseline-shift:baseline;white-space:normal;opacity:1;vector-effect:none;fill:#5599ff;fill-opacity:1;stroke:#b3b3b3;stroke-width:1px;stroke-linecap:butt;stroke-linejoin:miter;stroke-miterlimit:4;stroke-dasharray:none;stroke-dashoffset:0;stroke-opacity:1;-inkscape-stroke:none;stop-color:#000000;stop-opacity:1"
       x="1136.2522"
       y="1133.0519"
       id="text14327"
       transform="rotate(-20.660647)"><tspan
         sodipodi:role="line"
         id="tspan14325"
         x="1136.2522"
         y="1133.0519">Tipije</tspan></text>
    <text
       xml:space="preserve"
       style="font-style:italic;font-variant:normal;font-weight:600;font-stretch:normal;font-size:53.3333px;line-height:125%;font-family:'Linux Libertine O';-inkscape-font-specification:'Linux Libertine O Semi-Bold Italic';font-variant-ligatures:none;font-variant-position:normal;font-variant-caps:normal;font-variant-numeric:normal;font-variant-alternates:normal;font-variant-east-asian:normal;font-feature-settings:normal;font-variation-settings:normal;text-indent:0;text-align:start;text-decoration-line:none;text-decoration-style:solid;text-decoration-color:#000000;letter-spacing:0px;word-spacing:0px;text-transform:none;writing-mode:lr-tb;direction:ltr;text-orientation:mixed;dominant-baseline:auto;baseline-shift:baseline;white-space:normal;opacity:1;vector-effect:none;fill:#5599ff;fill-opacity:1;stroke:#b3b3b3;stroke-width:1px;stroke-linecap:butt;stroke-linejoin:miter;stroke-miterlimit:4;stroke-dasharray:none;stroke-dashoffset:0;stroke-opacity:1;-inkscape-stroke:none;stop-color:#000000;stop-opacity:1"
       x="1811.0101"
       y="-172.85019"
       id="text14331"
       transform="rotate(39.082462)"><tspan
         sodipodi:role="line"
         x="1811.0101"
         y="-172.85019"
         id="tspan14333">Vawe</tspan></text>
  </g>
  <g
     inkscape:groupmode="layer"
     id="layer10"
     inkscape:label="fluss"
     transform="translate(-1134.5319,-12.644185)">
    <path
       style="fill:none;fill-rule:evenodd;stroke:#0000ff;stroke-width:7.23825;stroke-linecap:butt;stroke-linejoin:miter;stroke-opacity:1;filter:url(#filter11075)"
       d="m 1400.1055,1337.3945 c 0,-0.4436 0.6925,-2.1557 0.6173,-3.2587 -0.098,-1.4398 -0.7916,-2.7854 -1.3758,-4.105 -0.7739,-1.7479 -2.9212,-3.0966 -2.8005,-5.0044 0.082,-1.305 1.9979,-1.8902 2.3317,-3.1545 0.6193,-2.3459 -1.3431,-4.8457 -0.8735,-7.2261 0.1616,-0.819 0.914,-1.41 1.2222,-2.1857 0.5126,-1.2902 1.1068,-2.6537 1.0164,-4.0391 -0.095,-1.456 -1.3211,-2.64 -1.6108,-4.07 -0.3989,-1.9693 -0.6853,-4.093 -0.138,-6.0263 0.204,-0.7206 0.6431,-1.4096 1.2211,-1.8858 2.9586,-2.4373 6.8662,-4.7539 10.6709,-4.2869 1.3679,0.1679 2.4308,1.3964 3.3499,2.4234 1.3472,1.5054 1.2748,4.2017 2.9875,5.2731 1.7481,1.0935 4.4596,1.5334 6.1737,0.3873 0.5585,-0.3735 0.5718,-1.2402 0.6521,-1.9073 0.2023,-1.6798 -1.6972,-3.9068 -0.4549,-5.0555 1.934,-1.7884 6.0743,-0.6767 7.7912,1.321 1.4376,1.6728 -1.152,4.8089 0.1126,6.6161 0.7874,1.1253 2.4865,1.669 3.8464,1.4771 3.2332,-0.4563 5.3377,-3.7789 7.8158,-5.9052 1.9156,-1.6437 4.1174,-3.122 5.4298,-5.2781 0.9096,-1.4944 0.9988,-3.3535 1.5208,-5.0233 0.4696,-1.5023 0.2646,-3.4577 1.4493,-4.4939 1.9814,-1.7329 5.8178,0.3629 7.7716,-1.4012 1.6286,-1.4704 2.4506,-4.2236 1.8213,-6.3256 -0.5653,-1.8885 -3.4183,-2.1946 -4.4899,-3.8492 -1.4006,-2.1625 -1.556,-4.9153 -2.1909,-7.4123 -0.3464,-1.3624 0.068,-3.0873 -0.8815,-4.1241 -1.4664,-1.6017 -4.1799,-1.1902 -6.2261,-1.9172 -1.3095,-0.4653 -3.1328,-0.3812 -3.8653,-1.5621 -0.6907,-1.1136 0.1138,-2.6227 0.2999,-3.9198 0.1899,-1.3239 1.2152,-2.6443 0.831,-3.9254 -0.4675,-1.5591 -2.0459,-2.65 -3.4732,-3.4324 -2.4568,-1.3468 -5.6698,-0.6512 -8.1964,-1.8621 -0.9822,-0.4707 -1.9394,-1.1353 -2.5603,-2.0302 -1.5606,-2.249 -1.444,-5.2998 -2.5276,-7.8137 -1.8861,-4.3756 -5.5522,-7.957 -6.8669,-12.5368 -0.5641,-1.9652 -0.9413,-4.1645 -0.3554,-6.1233 0.7823,-2.6156 5.2723,-3.8704 4.8862,-6.5731 -0.3188,-2.2313 -4.0502,-2.2692 -5.3922,-4.0801 -0.9007,-1.2154 -1.2019,-2.791 -1.5668,-4.2591 -0.466,-1.875 -0.6972,-3.8133 -0.7785,-5.7437 -0.09,-2.131 1.0457,-4.3837 0.3234,-6.3906 -0.7894,-2.1935 -2.7783,-3.8726 -4.7234,-5.1576 -1.4229,-0.94 -3.1278,-1.5424 -4.826,-1.698 -2.5281,-0.2317 -5.1364,2.0425 -7.524,1.18 -1.2367,-0.4467 -2.3804,-1.6654 -2.6069,-2.9607 -0.4067,-2.326 1.4844,-4.5084 2.5998,-6.5896 1.1029,-2.058 3.9929,-3.4137 4.0023,-5.7486 0.01,-1.8278 -2.211,-2.9266 -3.0967,-4.5255 -1.0857,-1.96 -1.885,-4.0691 -2.6893,-6.1603 -0.7301,-1.8983 -3.0438,-4.0815 -1.9352,-5.7867 0.8703,-1.3388 3.1911,-0.209 4.7688,-0.4553 1.6479,-0.2572 3.5119,-0.124 4.8889,-1.0651 1.006,-0.6875 2.1627,-1.8347 2.0223,-3.045 -0.167,-1.4394 -2.0623,-2.0407 -3.1704,-2.9745 -0.9205,-0.7758 -1.996,-1.3616 -2.8816,-2.177 -1.7265,-1.5895 -3.3032,-3.3571 -4.6928,-5.2483 -0.9497,-1.2925 -1.9882,-2.6011 -2.4648,-4.1326 -0.6328,-2.0335 -0.2582,-4.2516 -0.4189,-6.3752 -0.1504,-1.987 -0.5198,-3.9636 -0.5104,-5.9563 0.036,-7.6511 0.7886,-15.3259 2.1758,-22.8503 0.5554,-3.0125 1.8147,-5.8607 2.4486,-8.8577 0.3603,-1.7034 -0.3085,-3.7967 0.7658,-5.1668 0.2438,-0.3109 1.0872,-0.053 1.0971,-0.4484 0.059,-2.338 -4.0575,-2.5326 -6.3538,-2.9763 -2.5388,-0.4905 -5.2849,1.2336 -7.7449,0.437 -2.0699,-0.6703 -4.4596,-2.028 -5.0642,-4.118 -0.5144,-1.7783 0.4507,-3.9675 1.773,-5.2631 1.8636,-1.826 5.3734,-0.7902 7.4669,-2.3472 1.5533,-1.1552 2.9728,-2.8906 3.262,-4.8046 0.1536,-1.0167 -0.7395,-1.9347 -0.9013,-2.9501 -0.4611,-2.8944 -0.5577,-5.8857 -0.171,-8.791 0.2096,-1.5749 -0.046,-3.7915 1.3361,-4.5753 2.087,-1.1837 4.6689,1.1203 6.9657,1.8142 2.8468,0.8601 5.5191,2.3203 8.4343,2.908 2.6519,0.5346 5.8161,1.9866 8.0981,0.5338 1.2048,-0.767 1.3128,-2.5853 1.554,-3.9931 0.2999,-1.7502 -0.017,-3.5552 -0.1692,-5.3243 -0.1424,-1.6577 -0.9554,-3.2996 -0.6946,-4.9428 0.1426,-0.8988 1.3803,-1.5614 1.1982,-2.453 -0.3557,-1.7413 -2.9254,-2.0983 -4.0314,-3.4895 -0.9971,-1.2543 -2.3069,-2.6492 -2.2453,-4.2503 0.046,-1.1963 0.9502,-2.3307 1.9167,-3.0372 3.5204,-2.5732 8.7562,-1.3515 12.6601,-3.2943 1.5006,-0.7468 3.0236,-1.718 3.9445,-3.1185 1.252,-1.9041 1.9826,-4.3354 1.7675,-6.604 -0.1233,-1.3009 -0.558,-2.9068 -1.7071,-3.529 -1.7276,-0.9353 -3.9419,0.2661 -5.8456,0.7511 -1.8624,0.4744 -3.4519,2.0392 -5.3731,2.0908 -1.0889,0.029 -2.1454,-0.5037 -3.1047,-1.0199 -1.3486,-0.7257 -2.4921,-1.7969 -3.6015,-2.8526 -1.9796,-1.8838 -3.7166,-4.0155 -5.4023,-6.16631 -1.0441,-1.3322 -3.0158,-2.4727 -2.909,-4.16192 0.1523,-2.40746 3.4427,-3.41007 4.8601,-5.36197 0.7105,-0.97847 2.4191,-2.10858 1.802,-3.14854 -0.511,-0.86127 -2.1723,0.61844 -3.0038,0.0603 -1.465,-0.98337 -2.6018,-3.31658 -1.9064,-4.93822 0.7252,-1.69104 3.2752,-1.88103 5.101,-2.10942 2.9432,-0.36818 5.9486,2.06081 8.8074,1.27008 1.2444,-0.34419 2.066,-1.55779 3.0047,-2.4443 1.1833,-1.11758 3.2927,-3.60573 3.2927,-3.60573"
       id="path10621"
       sodipodi:nodetypes="caaaaaaaaaaaaaaaaaaaaaaaaaaaaaaaaaaaaaaaaaaaaaaaaaaaaaaaaaaaaaaaaaaaaaaaaaaaaaaaaaaaaaaaaaaaaaaaaaaaaac" />
    <path
       style="mix-blend-mode:normal;fill:none;fill-rule:evenodd;stroke:#5599ff;stroke-width:7.23825;stroke-linecap:butt;stroke-linejoin:miter;stroke-opacity:1;filter:url(#filter11079)"
       d="m 1598.6907,1034.1471 c 0.4785,-1.9919 2.2792,-8.7822 0.6367,-12.6838 -2.504,-5.948 -10.8394,-7.5108 -14.5079,-12.8203 -2.2736,-3.2906 -1.9693,-7.9357 -4.251,-11.22074 -2.6536,-3.82052 -6.4897,-6.83627 -10.5025,-9.18911 -4.7476,-2.78373 -10.1589,-4.45448 -15.5554,-5.53462 -4.426,-0.88588 -9.0745,-1.49084 -13.5221,-0.7208 -5.8665,1.0157 -10.7436,5.29112 -16.4782,6.89176 -2.6003,0.7258 -6.0777,-0.68867 -8.0103,1.19637 -2.4358,2.37581 0.762,7.76998 -1.7591,10.05504 -4.2564,3.8578 -11.9867,3.7366 -17.1851,1.2919 -3.0949,-1.45544 -3.4602,-6.00809 -5.9329,-8.37073 -3.1916,-3.04954 -6.8507,-6.12209 -11.1417,-7.15814 -5.0403,-1.21696 -10.7968,-0.71131 -15.482,1.51019 -2.5927,1.22936 -3.364,5.14824 -6.0694,6.10447 -1.7805,0.62932 -4.6246,0.98236 -5.6318,-0.61507 -1.7917,-2.84172 5.8086,-7.24174 3.3319,-9.51144 -1.4197,-1.30104 -4.1847,0.7833 -5.2652,2.37726 -0.5368,0.79189 0.6127,2.26223 -0.1284,2.8672 -1.5656,1.27794 -4.3386,0.22016 -5.9883,-0.94711 -4.0972,-2.89903 -2.8216,-10.73087 -7.1673,-13.24218 -2.9485,-1.70392 -7.9082,2.77995 -10.2128,0.27272 -2.611,-2.84064 2.5505,-7.8605 1.2808,-11.50393 -1.239,-3.55518 -5.2104,-5.44088 -7.9557,-8.01721 -3.8585,-3.62098 -7.1439,-8.2408 -11.9548,-10.44407 -5.2276,-2.39407 -11.9769,0.23057 -17.0782,-2.4219 -2.8413,-1.47738 -5.2544,-4.09119 -6.5677,-7.01197 -2.4687,-5.49016 -1.4748,-11.96527 -1.667,-17.98186 -0.1726,-5.40203 0.1601,-10.81146 0.4632,-16.20774 0.4442,-7.90694 1.2131,-15.79346 1.9852,-23.67514 0.8725,-8.90693 3.2318,-17.73522 2.9911,-26.68154 -0.2144,-7.96734 -7.3298,-16.37178 -3.9378,-23.58418 2.0344,-4.32563 8.3171,-4.71725 12.4009,-7.20172 4.6598,-2.83493 11.7504,-3.73492 13.8029,-8.78845 1.0025,-2.46821 -1.1044,-5.21687 -1.8394,-7.7775 -2.0986,-7.31152 -6.8764,-14.01908 -7.3251,-21.61256 -0.268,-4.53628 0.8137,-9.2618 2.825,-13.33666 3.6064,-7.30671 13.8493,-10.68014 15.9017,-18.56572 1.1068,-4.25239 -0.74,-8.94394 -2.6063,-12.92196 -2.6959,-5.74619 -7.6048,-10.19797 -11.9482,-14.82628 -3.1377,-3.34355 -7.4038,-5.61543 -10.1415,-9.2937 -3.8184,-5.1302 -11.2145,-11.54863 -8.357,-17.26998 2.2955,-4.5962 10.5376,-0.65276 15.1244,-2.96693 4.0006,-2.01838 6.0541,-6.80594 9.9196,-9.0723 4.8127,-2.82174 10.7574,-3.07078 15.8884,-5.26114 2.437,-1.04033 6.3263,-1.16518 7.0245,-3.72131 1.4971,-5.48086 -11.797,-9.63254 -8.9139,-14.52836 3.4976,-5.93927 13.8307,-0.0396 20.6578,0.90835 9.1123,1.26519 17.6976,5.51444 26.8597,6.34524 10.4589,0.94839 21.1817,0.52478 31.4643,-1.60993 9.2231,-1.91475 17.5634,-6.82757 26.4648,-9.90926 9.7403,-3.37213 20.0112,-5.27468 29.4645,-9.38329 5.3117,-2.30857 9.6597,-6.66254 15.1496,-8.50753 4.3925,-1.47619 10.1113,0.9462 13.772,-1.89503 13.9508,-10.82788 14.404,-32.30825 20.019,-49.05163 2.6928,-8.0295 0.6319,-18.4712 6.5232,-24.55529 7.877,-8.13478 21.3424,-8.05119 32.5341,-9.77409 3.9127,-0.60234 8.5803,2.03235 11.8753,-0.16202 13.5193,-9.00352 15.1475,-29.02485 19.3967,-44.70222 1.046,-3.85913 0.8404,-7.95507 1.4356,-11.90889 0.7853,-5.2164 -0.3649,-11.36455 2.8157,-15.57305 3.8749,-5.12718 12.066,-4.77155 17.3158,-8.47858 3.0267,-2.13722 7.6703,-4.0775 7.9465,-7.77239 0.8715,-11.6567 -17.0505,-17.02689 -21.145,-27.97556 -2.4567,-6.56911 0.6523,-14.29701 -1.4403,-20.99098 -2.4593,-7.86674 -8.8663,-13.9226 -12.6592,-21.24024 -1.2563,-2.42372 -3.7295,-4.78091 -3.3314,-7.48168 1.8028,-12.23114 19.8875,-16.51 24.2215,-28.08874 3.523,-9.41211 -2.1682,-20.36862 0.1425,-30.14924 1.0633,-4.50078 1.7502,-11.01232 6.1502,-12.4364 9.5424,-3.08845 18.688,8.39942 26.6121,14.04109 5.9179,4.21334 12.7139,5.96345 19.8689,-0.0159 14.7018,-8.54837 23.2726,-17.46096 29.9337,-32.06765 1.1934,-11.20696 -2.4895,-25.20059 -2.4895,-25.20059"
       id="path10623"
       sodipodi:nodetypes="caaaaaaaaaaaaaaaaaaaaaaaaaaaaaaaaaaaaaaaaaaaaaaaaaaaaaaaaaaaaaaaaaaaaasccc" />
    <path
       style="fill:none;fill-rule:evenodd;stroke:#5599ff;stroke-width:7.23825;stroke-linecap:butt;stroke-linejoin:miter;stroke-opacity:1;filter:url(#filter11083)"
       d="m 1202.6339,880.22916 c 2.7849,0 23.8961,3.05681 33.0901,-3.12527 5.9424,-3.99572 6.4017,-12.81905 9.9399,-19.04474 3.3829,-5.95246 8.0864,-11.1889 10.7809,-17.48301 4.0799,-9.53049 1.5678,-21.86624 7.8874,-30.08446 4.637,-6.03009 13.3279,-7.34368 19.8477,-11.26237 12.2272,-7.34914 22.4562,-18.85148 36.1178,-22.95946 10.3726,-3.119 21.6576,-0.60959 32.489,-0.58309 6.2306,0.0152 13.1679,-2.46462 18.687,0.42687 9.055,4.74403 12.9476,15.93818 18.0292,24.80818 3.4444,6.01218 8.325,19.0469 8.325,19.0469 v 0"
       id="path10625"
       sodipodi:nodetypes="caaaaaaaaaac" />
    <path
       style="fill:none;fill-rule:evenodd;stroke:#5599ff;stroke-width:7.23825;stroke-linecap:butt;stroke-linejoin:miter;stroke-opacity:1;filter:url(#filter11087)"
       d="m 1532.0358,811.50444 c 0,0 -6.8025,-8.46095 -9.9806,-12.85863 -4.4559,-6.16585 -10.4232,-11.69421 -12.726,-18.94469 -1.4498,-4.56479 0.4336,-9.63763 -0.3384,-14.36451 -1.1845,-7.25267 -5.3477,-13.80548 -6.5197,-21.06018 -0.8949,-5.53971 3.3417,-12.59494 -0.3384,-16.83118 -1.4563,-1.67634 -4.3742,-1.34995 -6.5762,-1.06373 -0.825,0.10723 -1.4514,1.08895 -2.2801,1.01515 -3.5707,-0.31799 -7.7251,-2.65371 -8.8973,-6.04153 -0.8393,-2.42578 2.1969,-4.77493 2.335,-7.3381 0.1,-1.85276 0.4883,-4.50957 -1.1083,-5.45489 -2.6405,-1.56339 -5.8427,3.58043 -8.7914,2.73091 -1.8336,-0.52828 -1.8674,-3.91186 -3.7254,-4.34658 -2.5232,-0.59033 -6.1737,0.64613 -7.1525,3.04546 -0.8791,2.15495 3.7662,4.39104 2.6777,6.44819 -1.177,2.22441 -4.9204,1.99521 -7.3934,1.5286 -1.6258,-0.30677 -2.5209,-2.48405 -4.1603,-2.70708 -4.3955,-0.59799 -8.5607,2.38873 -12.6881,4.01448 -3.341,1.316 -6.1798,4.07548 -9.7279,4.62772 -5.8686,0.9134 -11.7199,-2.1833 -17.6551,-2.40207 -3.4545,-0.12733 -7.0921,1.79104 -10.3509,0.6378 -4.3226,-1.5297 -6.761,-6.1958 -10.1415,-9.2937"
       id="path10627"
       sodipodi:nodetypes="caaaaaaaaaaaaaaaaaaaac" />
    <path
       style="fill:none;fill-rule:evenodd;stroke:#5599ff;stroke-width:7.23825;stroke-linecap:butt;stroke-linejoin:miter;stroke-opacity:1;filter:url(#filter11091)"
       d="m 1836.5228,748.27567 c -2.1562,0 -17.3741,-4.29358 -25.7445,-2.25782 -4.0997,0.99707 -6.6552,5.54883 -10.6929,6.77307 -3.9708,1.20397 -8.3077,-0.0238 -12.4443,0.30071 -3.3858,0.2656 -6.7426,1.86058 -10.0995,1.34511 -7.1854,-1.10337 -13.0028,-6.54714 -19.7581,-9.2328 -4.0382,-1.60541 -8.9899,-1.37345 -12.3763,-4.09673 -5.0182,-4.03551 -6.5684,-11.07814 -9.8641,-16.61036 -2.1697,-3.64217 -3.3386,-8.12035 -6.5244,-10.91746 -6.4785,-5.68809 -15.9157,-6.64465 -23.7313,-10.28365 -5.5128,-2.56679 -10.4346,-6.63327 -16.3256,-8.14156 -5.5279,-1.41532 -11.5676,0.71212 -17.1058,-0.66215 -6.1762,-1.53257 -11.6365,-5.19164 -17.2085,-8.26532 -7.2609,-4.00534 -14.5536,-8.09695 -21.0716,-13.22329 -2.0651,-1.62421 -3.9644,-3.48131 -5.6449,-5.5009 -3.5432,-4.25821 -5.0531,-10.18682 -9.2418,-13.81199 -3.9517,-3.4201 -9.5791,-4.2196 -14.1469,-6.75903 -2.5401,-1.41217 -5.0855,-2.87003 -7.3447,-4.69823 -2.2795,-1.84462 -4.1213,-4.17257 -6.1819,-6.25886"
       id="path10629"
       sodipodi:nodetypes="caaaaaaaaaaaaaaaaac" />
  </g>
</svg>
